<svg width="64" height="33" viewBox="0 0 64 33" fill="none" xmlns="http://www.w3.org/2000/svg">
<path d="M1.64 32.86C1.33333 31.7667 1.08 30.7267 0.88 29.74C0.68 28.7667 0.533333 27.88 0.44 27.08C0.346667 26.2933 0.3 25.6333 0.3 25.1C0.3 23.9133 0.486667 22.86 0.86 21.94C1.24667 21.0067 1.74 20.2067 2.34 19.54C2.95333 18.86 3.60667 18.3 4.3 17.86C5.00667 17.42 5.68667 17.0933 6.34 16.88C7.00667 16.6667 7.57333 16.56 8.04 16.56C8.52 16.56 8.91333 16.6867 9.22 16.94C9.54 17.1933 9.82 17.56 10.06 18.04C10.3133 18.5067 10.58 19.0733 10.86 19.74C11.18 20.46 11.46 21.0067 11.7 21.38C11.9533 21.74 12.2133 21.9867 12.48 22.12C12.7467 22.24 13.0467 22.3 13.38 22.3C13.8867 22.3 14.2533 22.4333 14.48 22.7C14.7067 22.9533 14.82 23.2733 14.82 23.66C14.82 24.0733 14.68 24.42 14.4 24.7C14.12 24.9667 13.7133 25.1 13.18 25.1C12.5267 25.1 11.96 24.9933 11.48 24.78C11 24.5533 10.5667 24.2333 10.18 23.82L10.74 23.2C10.62 23.6133 10.4533 23.9867 10.24 24.32C10.04 24.64 9.76667 24.8933 9.42 25.08C9.08667 25.2667 8.66667 25.36 8.16 25.36C7.70667 25.36 7.25333 25.2933 6.8 25.16C6.36 25.0267 5.92667 24.8267 5.5 24.56C5.08667 24.2933 4.68667 23.9667 4.3 23.58C3.91333 23.18 3.54667 22.72 3.2 22.2L3.94 22.06C3.64667 22.5133 3.43333 23.02 3.3 23.58C3.16667 24.14 3.1 24.6933 3.1 25.24C3.1 25.6667 3.13333 26.16 3.2 26.72C3.28 27.2933 3.38 27.8933 3.5 28.52C3.62 29.16 3.75333 29.7867 3.9 30.4C4.06 31.0267 4.21333 31.6 4.36 32.12L1.64 32.86ZM8.12 22.54C8.37333 22.54 8.57333 22.5067 8.72 22.44C8.88 22.36 8.98 22.2467 9.02 22.1C9.07333 21.9533 9.06 21.78 8.98 21.58C8.84667 21.22 8.71333 20.9067 8.58 20.64C8.46 20.3733 8.34 20.1467 8.22 19.96C8.11333 19.7733 8 19.6333 7.88 19.54C7.77333 19.4467 7.66 19.4 7.54 19.4C7.36667 19.4 7.15333 19.46 6.9 19.58C6.64667 19.6867 6.39333 19.82 6.14 19.98C5.88667 20.14 5.67333 20.3 5.5 20.46C5.32667 20.6067 5.22667 20.72 5.2 20.8L4.96 20.14C5.2 20.6067 5.48667 21.0267 5.82 21.4C6.16667 21.76 6.54 22.04 6.94 22.24C7.34 22.44 7.73333 22.54 8.12 22.54ZM14.2078 8.2V6.8L18.9278 5.4V6.84L14.2078 8.2ZM15.0678 4.4C14.5745 4.4 14.2411 4.22667 14.0678 3.88C13.8945 3.53333 13.8078 3.15333 13.8078 2.74C13.8078 2.59333 13.8145 2.44 13.8278 2.28C13.8545 2.10666 13.8878 1.91333 13.9278 1.7L15.1278 1.42C15.0878 1.64666 15.0545 1.86 15.0278 2.06C15.0145 2.24667 15.0078 2.41333 15.0078 2.56C15.0078 2.73333 15.0411 2.86667 15.1078 2.96C15.1745 3.05333 15.2678 3.1 15.3878 3.1C15.5478 3.1 15.6745 3.00667 15.7678 2.82C15.8745 2.63333 15.9278 2.27333 15.9278 1.74V1.14L17.0878 0.78V2C17.0878 2.14667 17.1145 2.26667 17.1678 2.36C17.2345 2.45333 17.3345 2.5 17.4678 2.5C17.6545 2.5 17.7811 2.44667 17.8478 2.34C17.9278 2.22 17.9678 2.08 17.9678 1.92C17.9678 1.69333 17.9411 1.46667 17.8878 1.24C17.8345 1 17.7611 0.766666 17.6678 0.539998L18.7678 0.259999C18.9011 0.513332 19.0078 0.806665 19.0878 1.14C19.1811 1.46 19.2278 1.75333 19.2278 2.02C19.2278 2.46 19.1011 2.86 18.8478 3.22C18.5945 3.56667 18.1811 3.74 17.6078 3.74C17.2478 3.74 16.9411 3.63333 16.6878 3.42C16.4345 3.19333 16.3078 2.92667 16.3078 2.62L16.7678 2.8C16.7678 3.25333 16.6078 3.63333 16.2878 3.94C15.9811 4.24667 15.5745 4.4 15.0678 4.4ZM13.2227 25.1L13.4227 22.3C14.0493 22.3 14.4893 22.24 14.7427 22.12C15.0093 21.9867 15.1693 21.7467 15.2227 21.4C15.276 21.04 15.2893 20.52 15.2627 19.84L14.9427 10.36H17.7827L18.1227 19.82C18.1493 20.4867 18.2293 21 18.3627 21.36C18.496 21.72 18.716 21.9667 19.0227 22.1C19.3427 22.2333 19.7693 22.3 20.3027 22.3C20.8093 22.3 21.1693 22.4333 21.3827 22.7C21.596 22.9533 21.7027 23.2733 21.7027 23.66C21.7027 24.0733 21.5627 24.42 21.2827 24.7C21.0027 24.9667 20.6093 25.1 20.1027 25.1C19.516 25.1 18.9693 25.0333 18.4627 24.9C17.956 24.7667 17.536 24.5133 17.2027 24.14C16.8693 23.7667 16.6493 23.2267 16.5427 22.52L17.4227 22.54C17.196 23.2333 16.9027 23.7667 16.5427 24.14C16.1827 24.5 15.7293 24.7533 15.1827 24.9C14.6493 25.0333 13.996 25.1 13.2227 25.1ZM27.7531 14.2V12.8L32.4731 11.4V12.84L27.7531 14.2ZM20.0977 25.1L20.2977 22.3C20.7377 22.3 21.0977 22.2667 21.3777 22.2C21.6577 22.12 21.8843 21.9533 22.0577 21.7C22.2443 21.4333 22.4043 21.04 22.5377 20.52C22.6843 19.9867 22.8443 19.2667 23.0177 18.36L25.6177 18.84C25.5643 19.1333 25.491 19.5 25.3977 19.94C25.3177 20.38 25.2777 20.76 25.2777 21.08C25.2777 21.3333 25.3243 21.5533 25.4177 21.74C25.5243 21.9133 25.6977 22.0533 25.9377 22.16C26.191 22.2533 26.5377 22.3 26.9777 22.3C27.3243 22.3 27.6177 22.2667 27.8577 22.2C28.111 22.12 28.3243 21.9533 28.4977 21.7C28.6843 21.4333 28.8443 21.0267 28.9777 20.48C29.1243 19.92 29.2643 19.1667 29.3977 18.22L32.0377 18.64C31.9843 18.9467 31.931 19.2733 31.8777 19.62C31.8243 19.9667 31.7777 20.2867 31.7377 20.58C31.6977 20.8733 31.6777 21.1133 31.6777 21.3C31.6777 21.4733 31.7243 21.64 31.8177 21.8C31.9243 21.9467 32.111 22.0667 32.3777 22.16C32.6577 22.2533 33.0443 22.3 33.5377 22.3C34.1377 22.3 34.5777 22.1733 34.8577 21.92C35.151 21.6533 35.2977 21.2533 35.2977 20.72C35.2977 20.4133 35.291 20.0867 35.2777 19.74C35.2643 19.38 35.2377 18.98 35.1977 18.54C35.171 18.0867 35.1177 17.5733 35.0377 17L37.6177 16.8C37.711 17.9467 37.8177 18.88 37.9377 19.6C38.0577 20.32 38.2177 20.88 38.4177 21.28C38.631 21.6667 38.911 21.9333 39.2577 22.08C39.6177 22.2267 40.0843 22.3 40.6577 22.3C41.1643 22.3 41.5243 22.4333 41.7377 22.7C41.9643 22.9533 42.0777 23.2733 42.0777 23.66C42.0777 24.0733 41.9377 24.42 41.6577 24.7C41.391 24.9667 40.991 25.1 40.4577 25.1C40.0977 25.1 39.7243 25.0667 39.3377 25C38.951 24.9467 38.5777 24.8333 38.2177 24.66C37.8577 24.4733 37.5377 24.2067 37.2577 23.86C36.9777 23.5133 36.7577 23.0533 36.5977 22.48L36.9577 22.6C36.771 23.2667 36.5177 23.78 36.1977 24.14C35.8777 24.5 35.4843 24.7533 35.0177 24.9C34.551 25.0333 33.991 25.1 33.3377 25.1C32.7377 25.1 32.2043 25.02 31.7377 24.86C31.271 24.7 30.8977 24.44 30.6177 24.08C30.351 23.7067 30.211 23.2067 30.1977 22.58H30.8777C30.611 23.3267 30.3043 23.88 29.9577 24.24C29.611 24.6 29.191 24.8333 28.6977 24.94C28.2043 25.0467 27.5843 25.1 26.8377 25.1C26.3843 25.1 25.9377 25.0533 25.4977 24.96C25.0577 24.8533 24.6643 24.62 24.3177 24.26C23.971 23.8867 23.7177 23.3 23.5577 22.5L24.6377 22.46C24.3577 23.2467 23.991 23.8267 23.5377 24.2C23.0977 24.5733 22.591 24.82 22.0177 24.94C21.4443 25.0467 20.8043 25.1 20.0977 25.1ZM43.4702 14.36L43.2502 13.1C43.9568 13.1 44.6168 13 45.2302 12.8C45.8435 12.5867 46.3368 12.32 46.7102 12C47.0835 11.68 47.2702 11.3667 47.2702 11.06C47.2702 10.8733 47.2168 10.7067 47.1102 10.56C47.0035 10.4133 46.8502 10.34 46.6502 10.34C46.4768 10.34 46.3235 10.4067 46.1902 10.54C46.0568 10.6733 45.9902 10.84 45.9902 11.04C45.9902 11.2933 46.0902 11.52 46.2902 11.72C46.4902 11.9067 46.7302 12.06 47.0102 12.18L46.1502 12.94C45.7502 12.7533 45.4035 12.5067 45.1102 12.2C44.8168 11.88 44.6702 11.4733 44.6702 10.98C44.6702 10.4333 44.8568 9.98 45.2302 9.62C45.6168 9.26 46.0968 9.08 46.6702 9.08C47.2968 9.08 47.7702 9.28 48.0902 9.68C48.4102 10.08 48.5702 10.5333 48.5702 11.04C48.5702 11.68 48.3368 12.24 47.8702 12.72C47.4168 13.2 46.8035 13.58 46.0302 13.86C45.2702 14.14 44.4168 14.3067 43.4702 14.36ZM40.4688 25.1L40.6688 22.3C41.0021 22.3 41.2554 22.2333 41.4288 22.1C41.6021 21.9667 41.7754 21.7333 41.9488 21.4C42.1221 21.0667 42.3621 20.6133 42.6688 20.04C43.0021 19.4 43.3488 18.8667 43.7088 18.44C44.0688 18 44.4288 17.6533 44.7888 17.4C45.1621 17.1333 45.5288 16.9467 45.8888 16.84C46.2621 16.72 46.6288 16.66 46.9888 16.66C47.4821 16.66 47.9421 16.7667 48.3688 16.98C48.8088 17.18 49.2288 17.5333 49.6288 18.04C50.0288 18.5333 50.4088 19.2133 50.7688 20.08C51.0221 20.68 51.2754 21.14 51.5288 21.46C51.7821 21.78 52.0421 22 52.3088 22.12C52.5888 22.24 52.8688 22.3 53.1488 22.3C53.6554 22.3 54.0154 22.4333 54.2288 22.7C54.4421 22.9533 54.5488 23.2733 54.5488 23.66C54.5488 24.0733 54.4088 24.42 54.1288 24.7C53.8488 24.9667 53.4554 25.1 52.9488 25.1C52.2954 25.1 51.7021 24.9933 51.1688 24.78C50.6354 24.5667 50.2154 24.2467 49.9088 23.82L50.4888 23.38C50.3688 23.66 50.1888 23.9533 49.9488 24.26C49.7221 24.5667 49.4221 24.8267 49.0488 25.04C48.6888 25.2533 48.2554 25.36 47.7488 25.36C47.4154 25.36 47.0221 25.2933 46.5688 25.16C46.1288 25.04 45.6688 24.8333 45.1888 24.54C44.7221 24.2333 44.2888 23.82 43.8888 23.3C43.6354 23.7667 43.3554 24.1333 43.0488 24.4C42.7421 24.6533 42.3821 24.8333 41.9688 24.94C41.5554 25.0467 41.0554 25.1 40.4688 25.1ZM45.0488 20.94C45.1821 21.14 45.3421 21.34 45.5288 21.54C45.7154 21.74 45.9221 21.92 46.1488 22.08C46.3754 22.2267 46.6154 22.3467 46.8688 22.44C47.1354 22.5333 47.3954 22.58 47.6488 22.58C47.9154 22.58 48.1354 22.48 48.3088 22.28C48.4821 22.0667 48.4888 21.7533 48.3288 21.34C48.2621 21.1667 48.1688 20.9733 48.0488 20.76C47.9421 20.5333 47.8154 20.32 47.6688 20.12C47.5354 19.92 47.3821 19.7533 47.2088 19.62C47.0488 19.4867 46.8821 19.42 46.7088 19.42C46.5354 19.42 46.3554 19.4733 46.1688 19.58C45.9821 19.6867 45.7954 19.8533 45.6087 20.08C45.4221 20.2933 45.2354 20.58 45.0488 20.94ZM52.9492 25.1L53.1492 22.3C53.7626 22.3 54.2026 22.24 54.4692 22.12C54.7359 21.9867 54.8959 21.7467 54.9492 21.4C55.0026 21.04 55.0159 20.52 54.9892 19.84L54.6292 10.36H57.4492L57.8492 20.04C57.8759 20.8133 57.8426 21.5133 57.7492 22.14C57.6692 22.7533 57.4626 23.28 57.1292 23.72C56.8092 24.16 56.3092 24.5 55.6292 24.74C54.9626 24.98 54.0692 25.1 52.9492 25.1ZM60.4867 25L60.0667 10.36H62.8667L63.2867 25H60.4867Z" fill="#004B40"/>
</svg>
