<svg width="90" height="88" viewBox="0 0 90 88" fill="none" xmlns="http://www.w3.org/2000/svg">
<path d="M70.0534 51.7244V87.7793C74.5363 87.7244 78.4159 85.1882 80.3901 81.4731C80.7602 81.6924 81.1715 81.8432 81.6513 81.8432H82.1448C83.0085 81.8432 83.7214 81.3771 84.1601 80.7876C84.5987 80.1981 84.8318 79.4716 84.8318 78.6901V75.7838V71.438V44.2803H83.502C82.7754 44.2803 82.1997 43.6908 82.1997 42.9643C82.1997 42.8272 82.1997 42.6764 82.1997 42.5256C82.1997 21.866 65.4609 5.1272 44.8013 5.1272C24.1554 5.1272 7.40289 21.866 7.40289 42.5256C7.40289 42.6764 7.40289 42.8135 7.40289 42.9643C7.4166 43.6908 6.82711 44.2803 6.10053 44.2803H4.78446V78.6901C4.78446 79.4716 5.01751 80.1981 5.4562 80.7876C5.88118 81.3771 6.60776 81.8432 7.47144 81.8432H7.97867C8.41736 81.8432 8.80122 81.7198 9.15765 81.5279C11.1455 85.202 15.0114 87.7244 19.4806 87.7793V51.7244C15.9574 51.7655 12.8317 53.342 10.6794 55.8097V45.5553C11.7761 45.3497 12.5849 44.4311 12.6946 43.307L12.722 43.1836V42.786C12.722 33.9163 16.3138 25.8965 22.1264 20.0838C27.9391 14.2712 35.9589 10.6794 44.8287 10.6794C53.6985 10.6794 61.7183 14.2712 67.5309 20.0838C73.3436 25.8965 76.9354 33.9163 76.9354 42.786V43.0602V43.0739C76.9354 44.294 77.799 45.3222 78.978 45.5553V55.9331C76.812 53.3969 73.6178 51.7655 70.0534 51.7244Z" fill="#004B40"/>
<path d="M83.502 44.2803H84.8318H86.0245C86.7373 44.2803 87.3131 43.7046 87.3268 43.0054C87.3268 42.8409 87.3268 42.6901 87.3268 42.5256C87.3268 19.0419 68.2849 0 44.8013 0C21.3176 0 2.27568 19.0419 2.27568 42.5256C2.27568 42.6901 2.27568 42.8409 2.27568 43.0054C2.28939 43.7183 2.86517 44.2803 3.57804 44.2803H4.77073H6.10052C6.8271 44.2803 7.41659 43.6909 7.40288 42.9643C7.40288 42.8272 7.40288 42.6764 7.40288 42.5256C7.40288 21.866 24.1417 5.1272 44.8013 5.1272C65.4609 5.1272 82.1996 21.866 82.1996 42.5256C82.1996 42.6764 82.1996 42.8135 82.1996 42.9643C82.1996 43.6909 82.7754 44.2803 83.502 44.2803Z" fill="#AAD4C8"/>
<path d="M0 72.0138C0 74.3855 1.91927 76.3185 4.29094 76.3459V63.1715C1.91927 63.1989 0 65.1319 0 67.5172V72.0138Z" fill="#616E7D"/>
<path d="M85.339 76.3459C87.7107 76.3185 89.6299 74.3855 89.6299 72.0138V67.5172C89.6299 65.1319 87.7107 63.2126 85.339 63.1715V76.3459Z" fill="#616E7D"/>
<path d="M20.2346 51.7244V87.9026H24.6078C25.2933 87.9026 25.8416 87.3543 25.8416 86.6688V52.9582C25.8416 52.2727 25.2933 51.7244 24.6078 51.7244H20.2346Z" fill="#82BFAB"/>
<path d="M63.5964 52.9582V86.6688C63.5964 87.3543 64.1448 87.9026 64.8302 87.9026H69.2034V51.7244H64.8302C64.1448 51.7244 63.5964 52.2727 63.5964 52.9582Z" fill="#82BFAB"/>
</svg>
