<svg width="99" height="55" viewBox="0 0 99 55" fill="none" xmlns="http://www.w3.org/2000/svg">
<path d="M82.8948 2.58475L49.4656 14.0103L16.0026 2.58475L0 25.8428L49.4656 42.7607L98.8973 25.8428L82.8948 2.58475Z" fill="#006754"/>
<path opacity="0.45" d="M5.83145 24.8934L46.855 40.5909L32.7511 26.6225C32.7511 26.6225 9.59477 21.0284 5.83145 24.8934Z" fill="#004B40"/>
<path opacity="0.45" d="M93.0998 24.8934L52.0762 40.5909L66.1802 26.6225C66.1463 26.6225 89.3026 21.0284 93.0998 24.8934Z" fill="#004B40"/>
<path d="M49.4656 42.7608L0 25.8428L0 28.0465L49.4656 44.9645L98.8973 28.0465V25.8428L49.4656 42.7608Z" fill="#A85000"/>
<path d="M23.1224 52.9319L28.8521 37.9125L47.2958 44.2186L23.1224 52.9319Z" fill="#773A08"/>
<path opacity="0.45" d="M24.7159 48.5922L47.2958 44.2186L28.8521 37.9125L24.7159 48.5922Z" fill="#773A08"/>
<path d="M49.4657 43.4388L23.1224 52.9319L25.0888 55L49.4657 46.3207L73.8086 55L75.8089 52.9319L49.4657 43.4388Z" fill="#BDF8D4"/>
<path d="M75.8089 52.9319L70.0452 37.9125L51.6016 44.2186L75.8089 52.9319Z" fill="#773A08"/>
<path opacity="0.45" d="M74.1815 48.5922L51.6016 44.2186L70.0452 37.9125L74.1815 48.5922Z" fill="#773A08"/>
<path d="M49.4656 46.3206C50.458 46.3206 51.2625 45.5161 51.2625 44.5237C51.2625 43.5313 50.458 42.7268 49.4656 42.7268C48.4732 42.7268 47.6687 43.5313 47.6687 44.5237C47.6687 45.5161 48.4732 46.3206 49.4656 46.3206Z" fill="white" fill-opacity="0.5"/>
<path d="M81.4708 2.58475L49.4656 18.5195L17.4604 2.58475C16.0026 4.51727 4.27185 24.0798 4.27185 24.0798C4.40747 24.0798 4.50918 24.1137 4.64479 24.1137C34.0733 27.0633 42.2441 36.319 44.9564 38.5567C47.6687 40.8282 49.4995 40.5909 49.4995 40.5909C49.4995 40.5909 51.3303 40.8282 54.0426 38.5567C56.7549 36.319 64.9257 27.0633 94.3542 24.1137C94.4898 24.1137 94.5916 24.0798 94.7272 24.0798C94.6594 24.0798 82.8947 4.55117 81.4708 2.58475Z" fill="#F5B304"/>
<path d="M94.6594 24.0798C94.5238 24.0798 94.4221 24.1137 94.2864 24.1137C64.858 27.0633 56.6871 36.319 53.9748 38.5567C51.2625 40.8282 49.4317 40.5909 49.4317 40.5909C49.4317 40.5909 47.6009 40.8282 44.8886 38.5567C42.1763 36.319 34.0055 27.0633 4.57702 24.1137C4.44141 24.1137 4.3397 24.0798 4.20408 24.0798C3.96675 24.4527 4.20408 24.7239 4.20408 24.7239C33.9377 27.6058 41.8373 36.8954 44.5496 39.167C47.2619 41.4046 49.3978 41.2351 49.3978 41.2351C49.3978 41.2351 51.5338 41.4046 54.2461 39.167C56.9584 36.9293 64.858 27.6397 94.5916 24.7239C94.6594 24.7239 94.8967 24.4527 94.6594 24.0798Z" fill="#87D1A4"/>
<path d="M80.2503 0.720041C63.8748 -3.2128 49.4318 10.247 49.4318 10.247C49.4318 10.247 34.9887 -3.2128 18.6132 0.720041C18.6132 0.720041 13.9684 7.83983 7.56058 19.9435C7.56058 19.9435 39.8031 23.5712 49.4318 37.0988C59.0604 23.5712 91.3029 19.9435 91.3029 19.9435C84.8951 7.83983 80.2503 0.720041 80.2503 0.720041Z" fill="#FBF9EF"/>
<path d="M91.3029 19.9435C91.3029 19.9435 59.0604 23.5712 49.4317 37.0988C39.837 23.5712 7.59446 19.9435 7.59446 19.9435C7.59446 19.9435 7.59446 21.0284 5.79756 23.1643C5.79756 23.1643 35.0565 25.2664 45.7023 37.4039C48.2112 40.2519 49.4317 39.9128 49.4317 39.9128C49.4317 39.9128 50.6862 40.2519 53.1612 37.4039C63.773 25.2664 93.0659 23.1643 93.0659 23.1643C91.3029 20.9945 91.3029 19.9435 91.3029 19.9435Z" fill="#BDF8D4"/>
<path d="M78.4194 2.14401C78.4194 2.14401 66.1801 -0.975144 49.4317 12.01C32.7171 -0.941241 20.4439 2.14401 20.4439 2.14401L12.1714 18.2144C37.328 19.9435 49.4317 32.6574 49.4317 32.6574C49.4317 32.6574 61.5353 19.9435 86.6919 18.2144L78.4194 2.14401ZM49.4656 31.1317C49.4656 31.1317 38.1417 19.5366 14.1378 17.2651L21.0881 2.82208C21.0881 2.82208 33.1239 0.482722 49.4656 12.7559C65.8072 0.482722 77.843 2.82208 77.843 2.82208L84.7933 17.2651C60.7894 19.5366 49.4656 31.1317 49.4656 31.1317Z" fill="#006754"/>
<path opacity="0.2" d="M52.5508 24.1115C57.0713 20.7777 71.1979 13.4 80.691 14.4171" stroke="#BDF8D4" stroke-width="3" stroke-linecap="round"/>
<path opacity="0.2" d="M52.5508 14.7562C56.5628 11.6149 66.9939 5.46004 76.6225 5.97117" stroke="#BDF8D4" stroke-width="3" stroke-linecap="round"/>
<path opacity="0.2" d="M52.5508 19.5027C56.9018 16.1198 68.2144 9.49147 78.6567 10.0419" stroke="#BDF8D4" stroke-width="3" stroke-linecap="round"/>
<path opacity="0.2" d="M46.7872 24.1115C42.2667 20.7777 28.1401 13.4 18.647 14.4171" stroke="#BDF8D4" stroke-width="3" stroke-linecap="round"/>
<path opacity="0.2" d="M46.7872 14.7562C42.7753 11.6149 32.3442 5.46004 22.7155 5.97117" stroke="#BDF8D4" stroke-width="3" stroke-linecap="round"/>
<path opacity="0.2" d="M46.7872 19.5027C42.4362 16.1198 31.1236 9.49147 20.6812 10.0419" stroke="#BDF8D4" stroke-width="3" stroke-linecap="round"/>
<path d="M49.4656 10.247C49.4656 10.247 49.8046 9.06034 50.4488 9.39938C50.4488 9.39938 50.042 28.6228 50.72 36.1156C50.8895 37.9803 52.5169 40.523 53.1611 41.4724H52.3135L52.0762 42.2521C52.0762 42.2521 49.5673 38.0142 49.4656 36.3529C48.957 28.8941 49.2283 12.0439 49.4656 10.247Z" fill="#BC8F7B"/>
</svg>
