<svg width="61" height="104" viewBox="0 0 61 104" fill="none" xmlns="http://www.w3.org/2000/svg">
<path d="M10.2583 96.7473L10.0956 96.6828C14.7841 84.6528 15.0393 78.2329 15.056 78.1704L15.2344 78.1763C15.2294 78.2419 14.9602 84.6832 10.2583 96.7473Z" fill="#992B2B"/>
<path d="M10.772 96.8767L10.6093 96.8122C15.2979 84.7821 15.553 78.3622 15.5697 78.2997L15.7471 78.3096C15.7431 78.3713 15.4778 84.8136 10.772 96.8767Z" fill="#992B2B"/>
<path d="M9.3487 96.3613L9.18599 96.2968C13.8756 84.2628 14.2897 77.7181 14.2947 77.6525L14.4721 77.6623C14.4671 77.7279 14.0506 84.2972 9.3487 96.3613Z" fill="#992B2B"/>
<path d="M5.05981 94.1991L4.89187 94.1541C4.9285 94.0174 9.98337 80.792 14.4367 77.6696L14.5363 77.8135C10.1327 80.8907 5.11206 94.0666 5.05981 94.1991Z" fill="#992B2B"/>
<path d="M5.3449 94.2755L5.17696 94.2305C5.21359 94.0938 10.2645 80.8674 14.7218 77.746L14.8214 77.8899C10.4139 80.966 5.39715 94.143 5.3449 94.2755Z" fill="#992B2B"/>
<path d="M5.74657 94.8854L5.58386 94.8209C10.4865 81.6636 14.9495 77.6772 14.9944 77.6348L15.1127 77.7712C15.0884 77.8149 10.6317 81.7779 5.74657 94.8854Z" fill="#992B2B"/>
<path d="M6.1567 95.1669L5.98486 95.1209C10.8914 81.9646 15.3597 77.9587 15.3993 77.9358L15.5148 78.0672C15.4751 78.0901 11.0419 82.0594 6.1567 95.1669Z" fill="#992B2B"/>
<path d="M8.92601 96.3611L8.76435 96.2927C8.8226 96.1534 14.6966 82.2768 14.453 77.9837L14.6317 77.973C14.8765 82.3083 9.171 95.7905 8.92601 96.3611Z" fill="#992B2B"/>
<path d="M9.57932 96.7036L9.41271 96.638C9.45248 96.4896 15.0724 82.4989 14.7413 78.22L14.9171 78.2044C15.2534 82.5265 9.81183 96.1171 9.57932 96.7036Z" fill="#992B2B"/>
<path d="M6.62951 95.1053L6.46784 95.0369C6.73739 94.4058 13.0573 79.6148 14.5927 78.1342L14.717 78.2638C13.2057 79.7174 6.69585 94.9514 6.62951 95.1053Z" fill="#992B2B"/>
<path d="M8.34939 95.8885L8.18487 95.8151C8.23475 95.7071 13.2114 84.6793 14.6876 78.4987L14.8555 78.5437C13.3802 84.7371 8.39927 95.7805 8.34939 95.8885Z" fill="#992B2B"/>
<path d="M8.06923 95.8092L7.90862 95.7369C7.95955 95.625 12.9323 84.5962 14.4084 78.4155L14.5764 78.4605C13.101 84.6539 8.12016 95.6973 8.06923 95.8092Z" fill="#992B2B"/>
<path d="M7.53474 95.6325L7.3668 95.5875C9.66392 89.5766 15.0466 77.5023 15.1046 77.3797L15.2652 77.4521C15.2153 77.5601 9.82977 89.6294 7.53474 95.6325Z" fill="#992B2B"/>
<path d="M7.24966 95.5561L7.08172 95.5111C9.37884 89.5002 14.7654 77.427 14.8195 77.3033L14.9801 77.3757C14.9302 77.4837 9.54859 89.554 7.24966 95.5561Z" fill="#992B2B"/>
<path d="M10.5384 96.8266L10.3651 96.755C15.1981 84.7637 15.3087 78.3051 15.3244 78.2465L15.5078 78.2496C15.5116 78.3134 15.3858 84.7973 10.5384 96.8266Z" fill="#BC4646"/>
<path d="M9.5323 96.4105L9.35892 96.3389C14.1909 84.3515 14.3015 77.8929 14.3183 77.8304L14.5016 77.8335C14.5044 77.9012 14.3787 84.3851 9.5323 96.4105Z" fill="#BC4646"/>
<path d="M4.76585 94.1245L4.59143 94.0568C4.62806 93.9201 9.83628 80.7317 14.6411 77.7034L14.7415 77.86C9.98329 80.8548 4.8181 93.992 4.76585 94.1245Z" fill="#BC4646"/>
<path d="M5.07826 94.2083L4.90774 94.1416C4.94437 94.0049 10.1526 80.8165 14.9536 77.7872L15.0539 77.9438C10.2957 80.9386 5.13051 94.0757 5.07826 94.2083Z" fill="#BC4646"/>
<path d="M5.46595 94.7768L5.29153 94.7091C10.332 81.5845 15.1311 77.6715 15.1757 77.6457L15.2919 77.7899C15.2442 77.8273 10.4829 81.7087 5.46595 94.7768Z" fill="#BC4646"/>
<path d="M5.86329 95.0591L5.68886 94.9914C10.7282 81.8707 15.5323 77.9548 15.5769 77.9291L15.6921 78.0771C15.6348 78.1036 10.8706 81.98 5.86329 95.0591Z" fill="#BC4646"/>
<path d="M9.18713 96.4645L9.0187 96.3901C9.07695 96.2508 15.1608 82.4347 14.7795 78.1088L14.9641 78.0914C15.3496 82.4643 9.43993 95.896 9.18713 96.4645Z" fill="#992B2B"/>
<path d="M9.79023 96.7601L9.62076 96.6896C9.65948 96.5451 15.4591 82.6026 14.9707 78.2857L15.1564 78.2643C15.6479 82.6322 10.0345 96.1767 9.79023 96.7601Z" fill="#BC4646"/>
<path d="M6.30831 94.9606L6.13988 94.8862C6.41724 94.2572 12.9715 79.529 14.6173 78.0738L14.7434 78.2122C13.1295 79.6425 6.38637 94.8099 6.30831 94.9606Z" fill="#BC4646"/>
<path d="M8.57769 96.0208L8.41031 95.9424C8.4417 95.8253 13.6361 84.8601 15.0887 78.6731L15.2645 78.7202C13.8126 84.9199 8.62862 95.9088 8.57769 96.0208Z" fill="#BC4646"/>
<path d="M7.66053 95.6787L7.49525 95.5926C7.55112 95.4778 13.2351 84.154 14.6937 77.9603L14.8734 78.0084C13.4137 84.206 7.7185 95.5561 7.66053 95.6787Z" fill="#BC4646"/>
<path d="M7.51914 95.6283L7.34862 95.5617C9.71109 89.5725 15.3057 77.5508 15.3627 77.4321L15.53 77.5104C15.477 77.6302 9.88447 89.644 7.51914 95.6283Z" fill="#BC4646"/>
<path d="M6.89426 95.4609L6.72374 95.3942C9.09116 89.4022 14.6848 77.3844 14.7378 77.2647L14.9052 77.343C14.8521 77.4628 9.25958 89.4766 6.89426 95.4609Z" fill="#BC4646"/>
<g style="mix-blend-mode:multiply">
<path d="M40.7942 10.2967C41.0974 10.2691 41.3911 10.1762 41.655 10.0243C41.919 9.87251 42.1469 9.66538 42.3233 9.41715C42.291 9.59386 42.2807 9.77388 42.2927 9.95312C42.3107 10.2296 42.3836 10.4998 42.5072 10.7478C42.6307 10.9959 42.8025 11.2168 43.0124 11.3977C43.2222 11.5787 43.4661 11.716 43.7296 11.8017C43.9931 11.8873 44.2711 11.9197 44.5472 11.8967C44.9954 11.8617 45.4199 11.6816 45.7564 11.3835C45.5991 11.7198 45.5314 12.0909 45.5597 12.4611C45.5773 12.7373 45.6499 13.0073 45.7731 13.2552C45.8963 13.5031 46.0677 13.7239 46.2772 13.9048C46.4868 14.0857 46.7303 14.223 46.9936 14.3086C47.2568 14.3943 47.5345 14.4266 47.8103 14.4036C47.8742 14.3998 47.9312 14.39 47.9922 14.3812C47.9343 14.6081 47.9138 14.843 47.9314 15.0765C47.9491 15.3528 48.0216 15.6228 48.1448 15.8707C48.268 16.1186 48.4394 16.3394 48.6489 16.5203C48.8585 16.7011 49.102 16.8384 49.3653 16.9241C49.6285 17.0097 49.9062 17.042 50.182 17.0191C50.3312 17.01 50.4788 16.9835 50.6218 16.9402C50.3927 17.1611 50.2153 17.43 50.1023 17.7276C49.9893 18.0251 49.9434 18.3439 49.9681 18.6613C50.0029 19.1875 50.2354 19.6812 50.6189 20.0433C51.0025 20.4053 51.5087 20.609 52.0361 20.6135C51.7213 20.8277 51.4685 21.121 51.3031 21.464C51.1377 21.8069 51.0656 22.1874 51.094 22.5671C51.112 22.8436 51.1849 23.1138 51.3085 23.3618C51.4321 23.6098 51.6038 23.8308 51.8137 24.0117C52.0236 24.1926 52.2674 24.33 52.5309 24.4156C52.7944 24.5013 53.0724 24.5336 53.3485 24.5107C53.9085 24.4553 54.4245 24.1827 54.7858 23.7513C55.1471 23.3199 55.325 22.7641 55.2813 22.2031C55.2464 21.677 55.0136 21.1836 54.6298 20.8221C54.2459 20.4606 53.7395 20.2579 53.2122 20.2547C53.5278 20.0403 53.7812 19.7464 53.9468 19.4027C54.1124 19.059 54.1843 18.6776 54.1553 18.2972C54.1372 18.0211 54.0643 17.7514 53.9409 17.5038C53.8175 17.2562 53.6461 17.0355 53.4367 16.8548C53.2272 16.674 52.9839 16.5367 52.7209 16.4508C52.4579 16.365 52.1805 16.3323 51.9047 16.3546C51.7558 16.3657 51.6084 16.3921 51.465 16.4336C51.694 16.2126 51.8714 15.9437 51.9845 15.6462C52.0975 15.3486 52.1433 15.0298 52.1187 14.7125C52.1011 14.4362 52.0285 14.1662 51.9053 13.9183C51.7821 13.6704 51.6107 13.4496 51.4012 13.2687C51.1916 13.0878 50.9481 12.9506 50.6849 12.8649C50.4216 12.7793 50.1439 12.747 49.8681 12.7699C49.8065 12.7742 49.7454 12.783 49.6852 12.7962C49.7434 12.568 49.7642 12.3319 49.747 12.097C49.7225 11.7066 49.5884 11.331 49.3599 11.0134C49.1315 10.6959 48.8181 10.4492 48.4558 10.3018C48.0934 10.1544 47.6968 10.1123 47.3116 10.1803C46.9263 10.2483 46.5681 10.4236 46.2781 10.6861C46.437 10.3493 46.5064 9.97721 46.4797 9.60574C46.4611 9.32941 46.3879 9.05952 46.2641 8.81175C46.1404 8.56398 45.9687 8.34327 45.7589 8.16244C45.5491 7.9816 45.3055 7.84425 45.0422 7.75836C44.7789 7.67247 44.5012 7.63976 44.2252 7.66213C43.9221 7.69054 43.6287 7.78378 43.3649 7.93554C43.1011 8.08729 42.8729 8.29402 42.696 8.54168C42.7303 8.36521 42.7406 8.18492 42.7266 8.0057C42.709 7.72944 42.6364 7.45946 42.5132 7.21157C42.39 6.96367 42.2187 6.74283 42.0091 6.56195C41.7995 6.38107 41.556 6.24379 41.2928 6.15815C41.0295 6.0725 40.7519 6.0402 40.476 6.06313C39.9152 6.11653 39.398 6.38861 39.0362 6.8205C38.6745 7.25238 38.4974 7.80932 38.5433 8.3708C38.5635 8.64544 38.638 8.91336 38.7623 9.15909C38.8866 9.40483 39.0583 9.62352 39.2676 9.80256C39.4768 9.9816 39.7195 10.1174 39.9815 10.2023C40.2435 10.2871 40.5197 10.3192 40.7942 10.2967Z" fill="#FFE6BD"/>
<path d="M32.5874 10.1488C33.1433 10.0948 33.6563 9.82618 34.0174 9.40009C34.3785 8.974 34.5594 8.42395 34.5216 7.86669C34.6501 8.33401 34.9378 8.74176 35.335 9.01941C35.7322 9.29707 36.214 9.42718 36.697 9.38723C37.2574 9.33282 37.774 9.06045 38.1355 8.62881C38.497 8.19717 38.6745 7.64081 38.6297 7.07956C38.6121 6.8033 38.5395 6.53333 38.4163 6.28543C38.2931 6.03753 38.1218 5.81669 37.9122 5.63581C37.7026 5.45494 37.4591 5.31766 37.1959 5.23201C36.9326 5.14636 36.655 5.11405 36.3791 5.13699C35.8228 5.19007 35.3092 5.45837 34.9478 5.88469C34.5865 6.31101 34.406 6.86163 34.4448 7.41913C34.3179 6.95008 34.03 6.54062 33.6316 6.26244C33.2332 5.98426 32.7496 5.85509 32.2656 5.89755C31.7047 5.951 31.1873 6.2228 30.825 6.65432C30.4627 7.08583 30.2845 7.64248 30.3289 8.20417C30.3468 8.48114 30.4197 8.75176 30.5435 9.00018C30.6672 9.24861 30.8393 9.46985 31.0496 9.65094C31.2599 9.83204 31.5043 9.96936 31.7683 10.0548C32.0324 10.1403 32.3108 10.1723 32.5874 10.1488Z" fill="#FFE6BD"/>
<path d="M34.5106 46.7139C34.4881 46.3887 34.3904 46.0732 34.2253 45.7921C34.0602 45.5111 33.8321 45.2722 33.559 45.0943C34.0786 44.995 34.5433 44.7073 34.8639 44.2864C35.1845 43.8655 35.3384 43.3411 35.2961 42.8137C35.266 42.3832 35.1039 41.9724 34.8319 41.6373C34.5598 41.3023 34.1911 41.0592 33.776 40.9413C34.0952 40.7275 34.3513 40.4321 34.5177 40.0858C34.6841 39.7395 34.7547 39.3549 34.7222 38.9721C34.688 38.4544 34.4625 37.9679 34.0895 37.6073C33.7165 37.2466 33.2227 37.0375 32.7042 37.0207C32.959 36.7992 33.1587 36.5214 33.2874 36.2093C33.4161 35.8972 33.4702 35.5593 33.4455 35.2226C33.4118 34.7265 33.2027 34.2586 32.8556 33.9025C32.5085 33.5464 32.046 33.3255 31.5509 33.2792C31.7341 32.9216 31.8155 32.5206 31.7862 32.1199C31.7503 31.5787 31.5047 31.0729 31.1016 30.7101C30.6985 30.3472 30.1698 30.1559 29.6278 30.1769C29.8237 29.8133 29.9123 29.4015 29.8832 28.9896C29.8489 28.4682 29.6206 27.9785 29.2433 27.6171C28.8659 27.2557 28.3669 27.0486 27.8446 27.0368C28.0395 26.6726 28.1268 26.2604 28.096 25.8484C28.064 25.3811 27.8763 24.938 27.5628 24.5899C27.2493 24.2419 26.8282 24.0089 26.3668 23.9283C26.7242 23.4967 26.8983 22.9423 26.8518 22.3839C26.8252 21.9957 26.6913 21.6226 26.4648 21.3061C26.2384 20.9897 25.9285 20.7424 25.5697 20.592C25.764 20.3753 25.9126 20.1216 26.0065 19.8461C26.1005 19.5706 26.1379 19.279 26.1165 18.9888C26.0817 18.4868 25.8683 18.0139 25.5151 17.6555C25.7932 17.5352 26.0428 17.3577 26.2478 17.1346C26.4528 16.9114 26.6085 16.6476 26.7048 16.3603C26.8012 16.073 26.8359 15.7687 26.8069 15.4671C26.7779 15.1655 26.6857 14.8733 26.5363 14.6097C27.0698 14.531 27.5539 14.254 27.8922 13.8342C28.2305 13.4143 28.398 12.8823 28.3615 12.3444C28.3569 12.2658 28.3471 12.1877 28.332 12.1104C28.4863 12.132 28.6426 12.136 28.7977 12.1222C29.3585 12.0688 29.8758 11.7967 30.2375 11.3648C30.5992 10.9329 30.7763 10.376 30.7305 9.81453C30.7128 9.53827 30.6403 9.26829 30.5171 9.02039C30.3939 8.7725 30.2225 8.55165 30.013 8.37078C29.8034 8.1899 29.5599 8.05262 29.2966 7.96697C29.0334 7.88133 28.7557 7.84903 28.4798 7.87196C27.9195 7.92637 27.4029 8.19873 27.0414 8.63037C26.6798 9.06201 26.5023 9.61838 26.5471 10.1796C26.5529 10.2586 26.5641 10.3371 26.5804 10.4146C26.4249 10.3921 26.2673 10.3878 26.1108 10.4018C25.7543 10.4379 25.4124 10.5623 25.1161 10.7638C24.8198 10.9652 24.5783 11.2374 24.4137 11.5557C24.249 11.874 24.1663 12.2282 24.1731 12.5865C24.1798 12.9448 24.2758 13.2957 24.4523 13.6076C23.9154 13.6887 23.4292 13.9702 23.0915 14.3955C22.7539 14.8208 22.5899 15.3582 22.6326 15.8995C22.6679 16.4004 22.8817 16.872 23.2351 17.2288C22.8183 17.4068 22.4682 17.7115 22.2343 18.0996C22.0003 18.4876 21.8944 18.9395 21.9315 19.3911C21.9587 19.7798 22.0933 20.1532 22.3204 20.4698C22.5475 20.7864 22.8581 21.0337 23.2176 21.1841C23.023 21.4014 22.8742 21.6557 22.78 21.9319C22.6859 22.208 22.6484 22.5002 22.6697 22.7912C22.7017 23.2585 22.8895 23.7016 23.2029 24.0497C23.5164 24.3977 23.9375 24.6307 24.3989 24.7113C24.0435 25.1439 23.8696 25.6975 23.9139 26.2557C23.9482 26.7771 24.1765 27.2667 24.5538 27.6281C24.9312 27.9896 25.4302 28.1966 25.9525 28.2084C25.7562 28.5719 25.6676 28.9838 25.6972 29.3958C25.7338 29.9376 25.9799 30.4439 26.3833 30.8075C26.7867 31.1711 27.3157 31.3634 27.8584 31.3437C27.6617 31.707 27.5731 32.1191 27.6031 32.5311C27.6352 33.0278 27.8437 33.4966 28.1912 33.853C28.5386 34.2094 29.0019 34.4298 29.4976 34.4745C29.3144 34.8321 29.233 35.2331 29.2624 35.6338C29.2958 36.1516 29.5213 36.6383 29.8947 36.9986C30.2682 37.3588 30.7627 37.5666 31.2814 37.5813C31.0261 37.8033 30.826 38.0817 30.6972 38.3945C30.5683 38.7073 30.5141 39.0459 30.5391 39.3833C30.5691 39.8138 30.7312 40.2246 31.0033 40.5597C31.2753 40.8948 31.644 41.1378 32.0592 41.2557C31.7415 41.471 31.4866 41.7667 31.3203 42.1126C31.1541 42.4585 31.0825 42.8423 31.1129 43.2249C31.1364 43.55 31.235 43.8653 31.401 44.1458C31.567 44.4264 31.7958 44.6646 32.0695 44.8417C31.5488 44.9408 31.083 45.2287 30.7615 45.6501C30.44 46.0715 30.2855 46.5967 30.3274 47.1251C30.3578 47.547 30.5136 47.9503 30.7748 48.2831C30.4688 48.152 30.1351 48.0986 29.8035 48.1275C29.253 48.1847 28.7458 48.4519 28.3872 48.8735C28.0287 49.295 27.8464 49.8386 27.8783 50.3911C27.9138 50.8796 28.1171 51.3407 28.4537 51.6964C28.245 51.5121 28.0011 51.3719 27.7367 51.2845C27.4724 51.1971 27.193 51.1643 26.9155 51.188C26.3547 51.2414 25.8375 51.5135 25.4758 51.9454C25.1141 52.3773 24.937 52.9342 24.9828 53.4957C25.0188 54.0067 25.2398 54.487 25.6044 54.8469C25.26 54.6671 24.8714 54.5891 24.4842 54.6221C23.9238 54.6765 23.4072 54.9489 23.0457 55.3805C22.6842 55.8121 22.5067 56.3685 22.5515 56.9297C22.5883 57.4875 22.8448 58.0078 23.2647 58.3766C23.0133 58.2994 22.7494 58.2713 22.4874 58.2939C21.9265 58.3473 21.4093 58.6194 21.0476 59.0513C20.6859 59.4832 20.5088 60.0401 20.5546 60.6016C20.582 61.0059 20.7258 61.3936 20.9687 61.7179C21.2116 62.0423 21.5432 62.2893 21.9235 62.4293C21.88 62.4277 21.8364 62.4286 21.793 62.432C21.2326 62.4864 20.716 62.7588 20.3545 63.1904C19.993 63.6221 19.8155 64.1784 19.8602 64.7397C19.8952 65.2049 20.0834 65.6454 20.3953 65.9923C21.5015 65.9413 22.598 65.7704 23.7034 65.7067C23.9632 65.3145 24.0882 64.8483 24.0592 64.3788C24.0315 63.9749 23.8874 63.5877 23.6443 63.264C23.4012 62.9403 23.0695 62.6941 22.6893 62.555L22.8209 62.5484C23.3808 62.4929 23.8968 62.2203 24.2581 61.7889C24.6194 61.3575 24.7973 60.8017 24.7536 60.2407C24.7155 59.6833 24.4592 59.1634 24.0404 58.7938C24.2914 58.873 24.5557 58.9012 24.8177 58.8765C25.2227 58.8363 25.608 58.682 25.9288 58.4315C26.2496 58.181 26.4928 57.8447 26.6301 57.4616C26.7674 57.0784 26.7932 56.6642 26.7044 56.267C26.6157 55.8698 26.4161 55.5059 26.1288 55.2176C26.4733 55.3974 26.8619 55.4754 27.249 55.4424C27.8094 55.388 28.326 55.1157 28.6875 54.684C29.049 54.2524 29.2265 53.696 29.1818 53.1348C29.1463 52.6463 28.943 52.1852 28.6064 51.8295C28.8149 52.014 29.0585 52.1545 29.3227 52.2426C29.5868 52.3306 29.866 52.3644 30.1435 52.3418C30.5264 52.303 30.8919 52.1625 31.2021 51.9347C31.5122 51.707 31.7558 51.4003 31.9074 51.0466C32.0589 50.6929 32.1131 50.3051 32.0641 49.9234C32.0151 49.5417 31.8649 49.1801 31.6289 48.8761C31.9351 49.0028 32.2671 49.0545 32.5973 49.0268C33.1552 48.9676 33.6677 48.6925 34.0253 48.2602C34.3829 47.828 34.557 47.2729 34.5106 46.7139Z" fill="#FFE6BD"/>
<path d="M52.1491 33.0176C52.3059 33.0399 52.4648 33.0445 52.6226 33.0314C53.1826 32.976 53.6986 32.7034 54.0599 32.272C54.4212 31.8406 54.5991 31.2848 54.5554 30.7238C54.5229 30.2495 54.33 29.8004 54.0084 29.4503C53.6869 29.1001 53.2558 28.8698 52.786 28.7971L52.8832 28.7939C53.4436 28.7394 53.9602 28.4671 54.3217 28.0354C54.6832 27.6038 54.8607 27.0474 54.8159 26.4862C54.7983 26.2099 54.7258 25.94 54.6026 25.6921C54.4794 25.4442 54.308 25.2233 54.0984 25.0424C53.8889 24.8616 53.6453 24.7243 53.3821 24.6386C53.1189 24.553 52.8412 24.5207 52.5653 24.5436C52.0049 24.598 51.4883 24.8704 51.1268 25.302C50.7653 25.7337 50.5878 26.29 50.6326 26.8513C50.6651 27.3255 50.8579 27.7746 51.1795 28.1248C51.501 28.4749 51.9321 28.7052 52.4019 28.7779L52.3047 28.7812C51.7438 28.8346 51.2264 29.1064 50.8641 29.538C50.5018 29.9695 50.3237 30.5261 50.3681 31.0878C50.3903 31.3974 50.4804 31.6983 50.6322 31.969C50.7839 32.2398 50.9935 32.4737 51.246 32.6542C51.0905 32.6317 50.9329 32.6274 50.7764 32.6414C50.3457 32.6844 49.938 32.8564 49.6065 33.1348C49.2751 33.4132 49.0354 33.7852 48.9187 34.202C48.802 34.6189 48.8139 35.0613 48.9526 35.4713C49.0914 35.8813 49.3506 36.24 49.6964 36.5003C49.4723 36.4415 49.2397 36.4217 49.0089 36.4417C48.6116 36.4805 48.233 36.6291 47.9153 36.8708C47.5977 37.1125 47.3535 37.4379 47.2103 37.8105C47.067 38.183 47.0302 38.5881 47.104 38.9804C47.1779 39.3727 47.3594 39.7367 47.6283 40.0317C47.4173 39.8283 47.1651 39.6724 46.8888 39.5746C46.6125 39.4767 46.3185 39.4391 46.0264 39.4643C45.466 39.5187 44.9494 39.7911 44.5879 40.2227C44.2264 40.6544 44.0489 41.2107 44.0937 41.772C44.1123 42.0486 44.1852 42.3189 44.3082 42.5673C44.4313 42.8158 44.602 43.0375 44.8108 43.2199C44.4587 43.0304 44.0588 42.948 43.6604 42.9829C43.1004 43.0383 42.5845 43.3109 42.2231 43.7423C41.8618 44.1737 41.684 44.7295 41.7277 45.2905C41.7442 45.4995 41.7906 45.7051 41.8655 45.9009C41.6538 45.6949 41.4002 45.5369 41.1219 45.4377C40.8436 45.3386 40.5472 45.3007 40.2529 45.3265C39.8728 45.3647 39.5096 45.5033 39.2007 45.7281C38.8917 45.9528 38.6481 46.2557 38.4947 46.6056C38.3413 46.9555 38.2837 47.3399 38.3277 47.7194C38.3718 48.0989 38.516 48.4599 38.7455 48.7653C38.5328 48.547 38.2742 48.3786 37.9885 48.2724C37.7028 48.1661 37.397 48.1247 37.0933 48.151C36.737 48.1855 36.3949 48.3086 36.0983 48.509C35.8016 48.7094 35.5598 48.9808 35.3948 49.2985C35.2298 49.6162 35.1469 49.9701 35.1535 50.3281C35.1602 50.686 35.2563 51.0366 35.433 51.348C35.028 51.0572 34.5309 50.924 34.0348 50.9733C33.474 51.0267 32.9568 51.2988 32.5951 51.7307C32.2334 52.1626 32.0563 52.7195 32.1021 53.281C32.1257 53.6307 32.2368 53.969 32.4254 54.2645C32.6139 54.5601 32.8737 54.8035 33.181 54.9724C32.8568 54.906 32.5216 54.9165 32.2023 55.003C31.8829 55.0895 31.5883 55.2496 31.3419 55.4705C31.0955 55.6914 30.9043 55.9668 30.7836 56.2749C30.6629 56.5829 30.6159 56.915 30.6466 57.2444C30.6767 57.6749 30.8388 58.0857 31.1108 58.4208C31.3828 58.7559 31.7516 58.9989 32.1667 59.1168C31.8593 59.0966 31.5511 59.1435 31.2636 59.2544C30.9762 59.3652 30.7163 59.5374 30.502 59.7588C30.2877 59.9802 30.1242 60.2456 30.0228 60.5365C29.9214 60.8275 29.8846 61.137 29.9149 61.4436C29.9331 61.7197 30.006 61.9894 30.1293 62.237C30.2527 62.4847 30.4241 62.7053 30.6335 62.8861C30.843 63.0669 31.0863 63.2042 31.3493 63.29C31.6123 63.3759 31.8898 63.4086 32.1655 63.3862C32.7255 63.3308 33.2415 63.0581 33.6028 62.6267C33.9641 62.1954 34.142 61.6396 34.0983 61.0785C34.0693 60.6476 33.9077 60.2363 33.6355 59.901C33.3633 59.5657 32.9939 59.323 32.5781 59.2061C33.0611 59.2326 33.5388 59.0949 33.9336 58.8155C34.3284 58.5361 34.617 58.1313 34.7526 57.667C34.8881 57.2027 34.8626 56.7062 34.6802 56.2582C34.4978 55.8103 34.1693 55.4372 33.748 55.1996C33.945 55.2427 34.1475 55.256 34.3485 55.2392C34.7041 55.2032 35.0451 55.0794 35.341 54.8788C35.6368 54.6783 35.8781 54.4074 36.0431 54.0904C36.2082 53.7734 36.2919 53.4203 36.2866 53.063C36.2812 52.7056 36.1872 52.3552 36.0127 52.0433C36.4177 52.334 36.9148 52.4672 37.4109 52.4179C37.9709 52.3625 38.4869 52.0899 38.8482 51.6585C39.2095 51.2271 39.3874 50.6713 39.3437 50.1103C39.3138 49.6992 39.1647 49.3057 38.9145 48.9781C39.1274 49.1962 39.3859 49.3644 39.6716 49.4706C39.9573 49.5769 40.263 49.6184 40.5666 49.5924C41.1274 49.539 41.6447 49.2669 42.0064 48.835C42.3681 48.4031 42.5452 47.8462 42.4994 47.2847C42.4861 47.0741 42.44 46.8668 42.3626 46.6704C42.5725 46.8788 42.8256 47.0386 43.1041 47.1386C43.3825 47.2385 43.6795 47.2761 43.9741 47.2487C44.5349 47.1953 45.0521 46.9232 45.4138 46.4913C45.7756 46.0595 45.9527 45.5025 45.9068 44.941C45.8889 44.6643 45.8163 44.3938 45.6932 44.1453C45.5701 43.8967 45.399 43.6751 45.1897 43.4931C45.5418 43.6826 45.9417 43.7651 46.3401 43.7302C46.9005 43.6758 47.4171 43.4034 47.7786 42.9718C48.1401 42.5401 48.3176 41.9838 48.2729 41.4225C48.2388 40.9439 48.0426 40.4913 47.7168 40.1391C47.9286 40.3425 48.1815 40.4985 48.4584 40.5965C48.7353 40.6945 49.0299 40.7324 49.3226 40.7075C49.8825 40.6521 50.3985 40.3795 50.7598 39.9481C51.1211 39.5167 51.299 38.9609 51.2553 38.3999C51.2341 38.0966 51.1481 37.8015 51.003 37.5344C50.8579 37.2673 50.6572 37.0345 50.4143 36.8517C50.6383 36.9112 50.871 36.931 51.1019 36.9104C51.6623 36.856 52.1788 36.5836 52.5404 36.152C52.9019 35.7203 53.0794 35.164 53.0346 34.6027C53.0148 34.2891 52.925 33.984 52.7718 33.7096C52.6186 33.4353 52.4058 33.1988 52.1491 33.0176Z" fill="#FFE6BD"/>
</g>
<path d="M16.0591 78.5354C15.9083 78.7068 15.709 78.8284 15.4876 78.8842C15.2662 78.94 15.0331 78.9272 14.8191 78.8477C14.6051 78.7682 14.4202 78.6256 14.289 78.4388C14.1577 78.2519 14.0863 78.0297 14.084 77.8014C14.0818 77.5731 14.1488 77.3495 14.2764 77.1601C14.4039 76.9707 14.5859 76.8245 14.7983 76.7408C15.0107 76.657 15.2435 76.6397 15.466 76.6911C15.6884 76.7425 15.8901 76.8602 16.0442 77.0286C16.2455 77.2267 16.3601 77.4965 16.3629 77.7789C16.3657 78.0613 16.2564 78.3333 16.0591 78.5354Z" fill="#A85000"/>
<path d="M16.0343 77.0343C15.929 77.0091 15.8191 77.0116 15.7151 77.0415C15.6111 77.0714 15.5167 77.1277 15.4409 77.2049C15.3651 77.2821 15.3106 77.3777 15.2827 77.4822C15.2548 77.5867 15.2545 77.6967 15.2817 77.8014C15.3089 77.9061 15.3627 78.002 15.438 78.0797C15.5132 78.1575 15.6073 78.2144 15.7111 78.245C15.8149 78.2756 15.9248 78.2788 16.0302 78.2543C16.1356 78.2298 16.2328 78.1784 16.3124 78.1052C16.3608 77.9177 16.3606 77.7211 16.3119 77.5338C16.2633 77.3464 16.1677 77.1746 16.0343 77.0343Z" fill="#A0510A"/>
<path d="M15.616 77.4078C15.3434 77.1126 15.1991 76.7212 15.2148 76.3196C15.2306 75.9181 15.4052 75.5392 15.7001 75.2662L19.4254 71.8147C19.7219 71.543 20.1138 71.3994 20.5157 71.4154C20.9176 71.4313 21.2969 71.6055 21.5709 71.8998C21.8427 72.1963 21.9862 72.5882 21.9702 72.9901C21.9543 73.392 21.7802 73.7713 21.4858 74.0454L17.7577 77.4919C17.462 77.7636 17.0708 77.9072 16.6695 77.8915C16.2683 77.8757 15.8896 77.7019 15.616 77.4078Z" fill="#A85000"/>
<path d="M19.4948 71.7746C19.491 72.2965 19.6892 72.7996 20.0479 73.1786C20.2502 73.4133 20.5068 73.595 20.7953 73.708C21.0837 73.8211 21.3954 73.862 21.7033 73.8273C21.9138 73.5262 22.0077 73.159 21.9678 72.7939C21.9278 72.4287 21.7567 72.0905 21.4861 71.842C21.2156 71.5936 20.8641 71.4518 20.4968 71.443C20.1296 71.4342 19.7717 71.559 19.4896 71.7942L19.4948 71.7746Z" fill="#A0510A"/>
<path d="M16.0475 76.6569C16.0031 76.6088 15.9687 76.5525 15.9462 76.491C15.9237 76.4296 15.9135 76.3644 15.9162 76.299C15.919 76.2336 15.9346 76.1694 15.9621 76.1101C15.9897 76.0508 16.0288 75.9975 16.077 75.9532L19.6667 72.6328C19.7145 72.5881 19.7708 72.5532 19.8322 72.5303C19.8936 72.5073 19.9589 72.4967 20.0244 72.4991C20.0899 72.5015 20.1542 72.5168 20.2138 72.5441C20.2734 72.5714 20.3269 72.6103 20.3714 72.6584C20.4162 72.7063 20.451 72.7625 20.474 72.8239C20.4969 72.8853 20.5075 72.9506 20.5051 73.0161C20.5028 73.0816 20.4875 73.146 20.4601 73.2055C20.4328 73.2651 20.394 73.3187 20.3458 73.3632L16.7512 76.6864C16.6536 76.775 16.525 76.8216 16.3933 76.8161C16.2616 76.8106 16.1374 76.7534 16.0475 76.6569Z" fill="#D67116"/>
<path d="M22.9413 73.1126C22.3781 73.6523 21.3422 73.4878 20.6602 72.7525C19.9781 72.0172 19.9023 70.988 20.4811 70.4524C21.06 69.9169 22.0852 70.0744 22.7633 70.8086C23.4415 71.5429 23.523 72.5819 22.9413 73.1126Z" fill="#A85000"/>
<path d="M22.8492 72.0037C22.6221 72.2107 22.1605 72.0745 21.8166 71.7019C21.4727 71.3293 21.3699 70.8538 21.5931 70.6457C21.8163 70.4376 22.2818 70.575 22.6257 70.9476C22.9695 71.3202 23.0724 71.7956 22.8492 72.0037Z" fill="#D67116"/>
<path d="M22.1455 71.271C22.7009 70.495 22.9859 69.5579 22.9563 68.6041L23.1421 68.5827C23.1793 69.4471 22.9587 70.303 22.5083 71.0417C23.2821 70.6379 24.4469 70.3681 24.7958 70.4407L24.7477 70.6204C23.8677 70.6653 23.0136 70.9334 22.2659 71.3995L22.1455 71.271Z" fill="#773A08"/>
<path d="M45.4335 10.6984C45.4688 11.1285 45.6308 11.5384 45.899 11.8765C46.1673 12.2146 46.5296 12.4656 46.9404 12.5979C47.3512 12.7301 47.7919 12.7377 48.207 12.6196C48.6221 12.5015 48.9928 12.2631 49.2725 11.9344C49.5521 11.6057 49.7281 11.2016 49.7782 10.7729C49.8283 10.3443 49.7502 9.91045 49.5539 9.52616C49.3576 9.14186 49.0518 8.82437 48.6751 8.61377C48.2985 8.40316 47.8678 8.30889 47.4376 8.34287C46.8596 8.3896 46.3237 8.66399 45.9479 9.1057C45.5721 9.54741 45.387 10.1203 45.4335 10.6984Z" fill="#B75F08"/>
<path d="M46.8548 9.34624C46.7774 9.54685 46.7633 9.76637 46.8146 9.9752C46.8658 10.184 46.9798 10.3721 47.1413 10.5142C47.3027 10.6562 47.5039 10.7453 47.7175 10.7694C47.9312 10.7935 48.1471 10.7516 48.3362 10.6492C48.5253 10.5468 48.6784 10.3889 48.7749 10.1967C48.8715 10.0046 48.9068 9.78746 48.8761 9.57464C48.8454 9.36182 48.7501 9.16353 48.6032 9.00651C48.4563 8.8495 48.2648 8.74131 48.0545 8.69654C47.8092 8.62517 47.5458 8.65337 47.3212 8.77499C47.0966 8.89662 46.929 9.10187 46.8548 9.34624Z" fill="#D67116"/>
<path d="M42.0193 8.13012C42.055 8.56029 42.2173 8.97026 42.4858 9.30821C42.7543 9.64616 43.117 9.89693 43.528 10.0288C43.939 10.1608 44.3799 10.1679 44.7949 10.0494C45.21 9.93081 45.5806 9.69191 45.8599 9.36283C46.1392 9.03375 46.3147 8.62926 46.3643 8.20046C46.4138 7.77167 46.3351 7.33782 46.1382 6.95372C45.9413 6.56962 45.6349 6.2525 45.2578 6.04245C44.8807 5.8324 44.4498 5.73883 44.0196 5.77357C43.7332 5.79615 43.4541 5.87513 43.1984 6.00596C42.9427 6.13678 42.7153 6.31687 42.5294 6.53588C42.3435 6.75488 42.2027 7.00848 42.1152 7.28208C42.0277 7.55568 41.9951 7.84388 42.0193 8.13012Z" fill="#B75F08"/>
<path d="M43.442 6.7574C43.3646 6.95801 43.3506 7.17753 43.4018 7.38637C43.453 7.5952 43.5671 7.78331 43.7285 7.92532C43.89 8.06733 44.0911 8.15641 44.3048 8.18056C44.5184 8.2047 44.7344 8.16275 44.9234 8.06035C45.1125 7.95795 45.2657 7.80002 45.3622 7.60788C45.4587 7.41574 45.494 7.19863 45.4633 6.9858C45.4326 6.77298 45.3374 6.57469 45.1905 6.41768C45.0435 6.26066 44.852 6.15247 44.6417 6.1077C44.3965 6.03634 44.133 6.06453 43.9084 6.18615C43.6839 6.30778 43.5163 6.51303 43.442 6.7574Z" fill="#D67116"/>
<path d="M38.1025 6.46948C38.1372 6.89985 38.2986 7.3103 38.5664 7.64893C38.8343 7.98757 39.1965 8.23919 39.6074 8.37198C40.0182 8.50478 40.4592 8.51279 40.8746 8.395C41.2899 8.27722 41.6611 8.03892 41.9411 7.71024C42.221 7.38155 42.3973 6.97725 42.4475 6.54842C42.4977 6.11959 42.4197 5.68549 42.2232 5.301C42.0268 4.91652 41.7208 4.59891 41.3439 4.38832C40.9669 4.17773 40.536 4.08362 40.1056 4.11788C39.5285 4.1649 38.9935 4.43885 38.618 4.87967C38.2426 5.32048 38.0572 5.8922 38.1025 6.46948Z" fill="#B75F08"/>
<path d="M39.527 5.10564C39.4488 5.30608 39.4339 5.52572 39.4845 5.73488C39.535 5.94405 39.6485 6.13267 39.8097 6.27527C39.9708 6.41787 40.1718 6.50758 40.3856 6.53229C40.5993 6.55701 40.8155 6.51553 41.005 6.41347C41.1944 6.3114 41.348 6.15366 41.4449 5.96155C41.5418 5.76944 41.5775 5.55221 41.547 5.33919C41.5166 5.12618 41.4215 4.92763 41.2746 4.77038C41.1277 4.61313 40.9361 4.50474 40.7257 4.45984C40.4811 4.38753 40.2178 4.41484 39.9933 4.53581C39.7688 4.65678 39.6012 4.86161 39.527 5.10564Z" fill="#D67116"/>
<path d="M33.8325 5.51784C33.8671 5.94821 34.0285 6.35865 34.2964 6.69729C34.5642 7.03592 34.9265 7.28754 35.3373 7.42034C35.7481 7.55313 36.1891 7.56115 36.6045 7.44336C37.0199 7.32557 37.391 7.08728 37.671 6.75859C37.951 6.42991 38.1272 6.0256 38.1774 5.59677C38.2277 5.16794 38.1496 4.73385 37.9532 4.34936C37.7568 3.96488 37.4507 3.64727 37.0738 3.43668C36.6969 3.22609 36.266 3.13197 35.8356 3.16624C35.5496 3.189 35.2709 3.2679 35.0155 3.39843C34.76 3.52895 34.5327 3.70854 34.3467 3.92694C34.1607 4.14533 34.0195 4.39824 33.9313 4.67121C33.843 4.94419 33.8095 5.23188 33.8325 5.51784Z" fill="#B75F08"/>
<path d="M35.2474 4.14305C35.1691 4.3435 35.1542 4.56313 35.2048 4.7723C35.2553 4.98146 35.3688 5.17008 35.53 5.31268C35.6911 5.45528 35.8921 5.54499 36.1059 5.56971C36.3196 5.59442 36.5358 5.55295 36.7253 5.45088C36.9147 5.34882 37.0683 5.19108 37.1652 4.99897C37.2621 4.80685 37.2978 4.58962 37.2673 4.37661C37.2369 4.16359 37.1418 3.96505 36.9949 3.80779C36.848 3.65054 36.6564 3.54215 36.446 3.49726C36.2014 3.42495 35.9381 3.45226 35.7136 3.57323C35.4891 3.6942 35.3215 3.89903 35.2474 4.14305Z" fill="#D67116"/>
<path d="M29.5561 6.27661C29.5908 6.70698 29.7522 7.11743 30.0201 7.45606C30.2879 7.7947 30.6501 8.04632 31.061 8.17911C31.4718 8.31191 31.9128 8.31991 32.3282 8.20213C32.7436 8.08434 33.1147 7.84605 33.3947 7.51737C33.6746 7.18868 33.8509 6.78437 33.9011 6.35554C33.9513 5.92671 33.8733 5.49262 33.6769 5.10814C33.4804 4.72365 33.1744 4.40604 32.7975 4.19545C32.4206 3.98486 31.9897 3.89075 31.5593 3.92501C30.9821 3.97203 30.4471 4.24597 30.0717 4.68679C29.6962 5.12761 29.5108 5.69933 29.5561 6.27661Z" fill="#B75F08"/>
<path d="M30.9796 4.91671C30.9022 5.11731 30.8881 5.33683 30.9394 5.54567C30.9906 5.75451 31.1046 5.94261 31.2661 6.08462C31.4275 6.22663 31.6287 6.31571 31.8423 6.33986C32.056 6.364 32.2719 6.32204 32.461 6.21964C32.6501 6.11724 32.8032 5.95932 32.8998 5.76718C32.9963 5.57504 33.0316 5.35793 33.0009 5.1451C32.9702 4.93228 32.8749 4.73399 32.728 4.57698C32.5811 4.41996 32.3896 4.31177 32.1793 4.267C31.934 4.19564 31.6706 4.22383 31.446 4.34546C31.2214 4.46708 31.0538 4.67234 30.9796 4.91671Z" fill="#D67116"/>
<path d="M25.6251 8.26234C25.6597 8.69271 25.8211 9.10316 26.089 9.44179C26.3568 9.78043 26.7191 10.032 27.1299 10.1648C27.5407 10.2976 27.9817 10.3056 28.3971 10.1879C28.8125 10.0701 29.1836 9.83178 29.4636 9.5031C29.7436 9.17441 29.9198 8.7701 29.97 8.34127C30.0203 7.91244 29.9422 7.47835 29.7458 7.09387C29.5494 6.70938 29.2433 6.39177 28.8664 6.18118C28.4895 5.97059 28.0586 5.87648 27.6282 5.91074C27.3422 5.93351 27.0635 6.01241 26.8081 6.14293C26.5526 6.27346 26.3253 6.45305 26.1393 6.67144C25.9533 6.88983 25.8121 7.14274 25.7239 7.41572C25.6357 7.68869 25.6021 7.97638 25.6251 8.26234Z" fill="#B75F08"/>
<path d="M27.0496 6.89852C26.9713 7.09896 26.9564 7.3186 27.007 7.52776C27.0575 7.73692 27.171 7.92554 27.3322 8.06814C27.4933 8.21074 27.6944 8.30046 27.9081 8.32517C28.1219 8.34989 28.3381 8.30841 28.5275 8.20634C28.7169 8.10428 28.8705 7.94654 28.9674 7.75443C29.0644 7.56232 29.1 7.34509 29.0695 7.13207C29.0391 6.91905 28.944 6.72051 28.7971 6.56326C28.6502 6.406 28.4586 6.29761 28.2482 6.25272C28.0036 6.18041 27.7404 6.20772 27.5158 6.32869C27.2913 6.44966 27.1237 6.65449 27.0496 6.89852Z" fill="#D67116"/>
<path d="M23.1719 10.8408C23.2065 11.2712 23.368 11.6816 23.6358 12.0203C23.9037 12.3589 24.2659 12.6105 24.6767 12.7433C25.0876 12.8761 25.5285 12.8841 25.9439 12.7663C26.3593 12.6486 26.7304 12.4103 27.0104 12.0816C27.2904 11.7529 27.4666 11.3486 27.5169 10.9198C27.5671 10.4909 27.4891 10.0568 27.2926 9.67234C27.0962 9.28786 26.7902 8.97025 26.4132 8.75966C26.0363 8.54907 25.6054 8.45496 25.175 8.48922C24.5979 8.53624 24.0629 8.81019 23.6874 9.251C23.3119 9.69182 23.1265 10.2635 23.1719 10.8408Z" fill="#B75F08"/>
<path d="M24.6081 9.48003C24.5298 9.68047 24.515 9.90011 24.5655 10.1093C24.616 10.3184 24.7295 10.5071 24.8907 10.6497C25.0518 10.7923 25.2529 10.882 25.4666 10.9067C25.6804 10.9314 25.8966 10.8899 26.086 10.7879C26.2754 10.6858 26.429 10.5281 26.5259 10.3359C26.6229 10.1438 26.6585 9.9266 26.6281 9.71358C26.5976 9.50057 26.5025 9.30202 26.3556 9.14477C26.2087 8.98752 26.0171 8.87913 25.8067 8.83423C25.5621 8.76411 25.2999 8.79241 25.0759 8.91308C24.8519 9.03375 24.684 9.23722 24.6081 9.48003Z" fill="#D67116"/>
<path d="M21.5781 14.1016C21.6138 14.5318 21.7761 14.9418 22.0446 15.2797C22.3131 15.6177 22.6758 15.8684 23.0868 16.0004C23.4978 16.1323 23.9387 16.1394 24.3537 16.0209C24.7688 15.9023 25.1394 15.6634 25.4187 15.3343C25.698 15.0053 25.8735 14.6008 25.9231 14.172C25.9726 13.7432 25.8939 13.3093 25.697 12.9252C25.5001 12.5411 25.1937 12.224 24.8166 12.014C24.4395 11.8039 24.0086 11.7103 23.5784 11.7451C23.2922 11.7682 23.0134 11.8475 22.7579 11.9785C22.5024 12.1095 22.2753 12.2896 22.0895 12.5085C21.9037 12.7274 21.7629 12.9808 21.6751 13.2541C21.5874 13.5275 21.5544 13.8155 21.5781 14.1016Z" fill="#B75F08"/>
<path d="M23.0027 12.7377C22.9263 12.9376 22.913 13.156 22.9644 13.3636C23.0159 13.5712 23.1297 13.7581 23.2906 13.8991C23.4514 14.0401 23.6516 14.1285 23.8642 14.1523C24.0767 14.1761 24.2915 14.1343 24.4796 14.0325C24.6677 13.9306 24.8201 13.7736 24.9163 13.5825C25.0125 13.3914 25.0478 13.1755 25.0176 12.9638C24.9874 12.752 24.8931 12.5546 24.7474 12.398C24.6016 12.2414 24.4114 12.1333 24.2023 12.088C23.9571 12.0156 23.6931 12.0433 23.4683 12.165C23.2434 12.2868 23.076 12.4928 23.0027 12.7377Z" fill="#D67116"/>
<path d="M20.8709 17.6628C20.9066 18.0929 21.0689 18.5029 21.3374 18.8408C21.606 19.1788 21.9686 19.4296 22.3796 19.5615C22.7906 19.6934 23.2315 19.7005 23.6465 19.582C24.0616 19.4635 24.4322 19.2245 24.7115 18.8955C24.9908 18.5664 25.1664 18.1619 25.2159 17.7331C25.2654 17.3043 25.1868 16.8705 24.9898 16.4864C24.7929 16.1023 24.4865 15.7851 24.1094 15.5751C23.7323 15.365 23.3014 15.2715 22.8712 15.3062C22.585 15.3293 22.3062 15.4086 22.0507 15.5396C21.7952 15.6706 21.5681 15.8507 21.3823 16.0696C21.1965 16.2885 21.0557 16.5419 20.968 16.8153C20.8802 17.0886 20.8472 17.3766 20.8709 17.6628Z" fill="#B75F08"/>
<path d="M22.2954 16.2989C22.2191 16.4987 22.2057 16.7171 22.2572 16.9247C22.3087 17.1323 22.4225 17.3192 22.5833 17.4602C22.7442 17.6012 22.9444 17.6896 23.1569 17.7134C23.3695 17.7373 23.5843 17.6954 23.7724 17.5936C23.9605 17.4917 24.1129 17.3347 24.209 17.1436C24.3052 16.9526 24.3406 16.7366 24.3104 16.5249C24.2802 16.3131 24.1859 16.1157 24.0401 15.9591C23.8944 15.8026 23.7042 15.6944 23.4951 15.6492C23.2499 15.5778 22.9864 15.606 22.7618 15.7276C22.5372 15.8493 22.3697 16.0545 22.2954 16.2989Z" fill="#D67116"/>
<path d="M21.6577 21.147C21.6934 21.5772 21.8557 21.9872 22.1242 22.3251C22.3928 22.6631 22.7554 22.9138 23.1664 23.0458C23.5774 23.1777 24.0183 23.1848 24.4333 23.0663C24.8484 22.9477 25.219 22.7088 25.4983 22.3797C25.7776 22.0507 25.9532 21.6462 26.0027 21.2174C26.0522 20.7886 25.9736 20.3547 25.7766 19.9706C25.5797 19.5865 25.2733 19.2694 24.8962 19.0594C24.5191 18.8493 24.0882 18.7558 23.658 18.7905C23.3718 18.8136 23.093 18.8929 22.8375 19.0239C22.582 19.1549 22.3549 19.335 22.1691 19.5539C21.9833 19.7728 21.8425 20.0262 21.7548 20.2995C21.667 20.5729 21.634 20.8609 21.6577 21.147Z" fill="#B75F08"/>
<path d="M23.0784 19.7821C23.001 19.9828 22.9869 20.2023 23.0381 20.4111C23.0894 20.6199 23.2034 20.8081 23.3649 20.9501C23.5263 21.0921 23.7274 21.1812 23.9411 21.2053C24.1548 21.2294 24.3707 21.1875 24.5598 21.0851C24.7489 20.9827 24.902 20.8248 24.9985 20.6326C25.0951 20.4405 25.1303 20.2234 25.0996 20.0105C25.0689 19.7977 24.9737 19.5994 24.8268 19.4424C24.6799 19.2854 24.4884 19.1772 24.278 19.1324C24.0328 19.0622 23.7698 19.0909 23.5455 19.2123C23.3212 19.3338 23.1535 19.5384 23.0784 19.7821Z" fill="#D67116"/>
<path d="M22.9631 24.7116C22.998 25.1421 23.1597 25.5525 23.4279 25.891C23.6961 26.2295 24.0586 26.4809 24.4697 26.6134C24.8807 26.7458 25.3218 26.7534 25.7372 26.6351C26.1525 26.5169 26.5235 26.2781 26.8031 25.949C27.0828 25.6199 27.2586 25.2153 27.3082 24.7863C27.3579 24.3573 27.2793 23.9232 27.0822 23.5389C26.8851 23.1546 26.5786 22.8374 26.2012 22.6274C25.8239 22.4173 25.3927 22.3239 24.9623 22.359C24.3852 22.4059 23.8504 22.6801 23.4755 23.1213C23.1006 23.5625 22.9163 24.1345 22.9631 24.7116Z" fill="#B75F08"/>
<path d="M24.3917 23.3321C24.3143 23.5327 24.3003 23.7523 24.3515 23.9611C24.4027 24.1699 24.5167 24.358 24.6782 24.5001C24.8397 24.6421 25.0408 24.7311 25.2544 24.7553C25.4681 24.7794 25.684 24.7375 25.8731 24.6351C26.0622 24.5327 26.2153 24.3748 26.3119 24.1826C26.4084 23.9905 26.4437 23.7734 26.413 23.5605C26.3823 23.3477 26.287 23.1494 26.1401 22.9924C25.9932 22.8354 25.8017 22.7272 25.5914 22.6824C25.3462 22.6111 25.0827 22.6393 24.8581 22.7609C24.6335 22.8825 24.466 23.0878 24.3917 23.3321Z" fill="#D67116"/>
<path d="M24.8473 27.9123C24.8822 28.3427 25.044 28.7532 25.3121 29.0917C25.5803 29.4302 25.9429 29.6816 26.3539 29.814C26.765 29.9465 27.206 29.9541 27.6214 29.8358C28.0368 29.7176 28.4077 29.4788 28.6874 29.1497C28.967 28.8206 29.1428 28.416 29.1925 27.987C29.2422 27.558 29.1635 27.1239 28.9665 26.7396C28.7694 26.3553 28.4628 26.0381 28.0855 25.8281C27.7081 25.618 27.277 25.5246 26.8465 25.5596C26.2695 25.6066 25.7347 25.8808 25.3598 26.322C24.9849 26.7632 24.8005 27.3352 24.8473 27.9123Z" fill="#B75F08"/>
<path d="M26.2679 26.5474C26.1896 26.7478 26.1748 26.9674 26.2253 27.1766C26.2758 27.3858 26.3894 27.5744 26.5505 27.717C26.7116 27.8596 26.9127 27.9493 27.1264 27.974C27.3402 27.9987 27.5564 27.9572 27.7458 27.8552C27.9352 27.7531 28.0888 27.5954 28.1857 27.4033C28.2827 27.2111 28.3183 26.9939 28.2879 26.7809C28.2574 26.5679 28.1623 26.3693 28.0154 26.2121C27.8685 26.0548 27.6769 25.9464 27.4665 25.9016C27.2219 25.8314 26.9597 25.8597 26.7357 25.9804C26.5117 26.1011 26.3438 26.3045 26.2679 26.5474Z" fill="#D67116"/>
<path d="M26.8408 31.1422C26.8762 31.5723 27.0382 31.9823 27.3064 32.3204C27.5746 32.6584 27.937 32.9094 28.3478 33.0417C28.7585 33.174 29.1993 33.1815 29.6144 33.0634C30.0294 32.9454 30.4002 32.7069 30.6799 32.3782C30.9595 32.0496 31.1355 31.6454 31.1856 31.2168C31.2357 30.7882 31.1576 30.3543 30.9613 29.97C30.765 29.5857 30.4592 29.2682 30.0825 29.0576C29.7058 28.847 29.2752 28.7527 28.845 28.7867C28.2669 28.8335 27.7311 29.1078 27.3553 29.5495C26.9794 29.9913 26.7944 30.5641 26.8408 31.1422Z" fill="#B75F08"/>
<path d="M28.2653 29.7784C28.1879 29.979 28.1739 30.1985 28.2251 30.4073C28.2763 30.6162 28.3904 30.8043 28.5518 30.9463C28.7133 31.0883 28.9144 31.1774 29.1281 31.2015C29.3417 31.2257 29.5577 31.1837 29.7467 31.0813C29.9358 30.9789 30.089 30.821 30.1855 30.6288C30.282 30.4367 30.3173 30.2196 30.2866 30.0068C30.2559 29.7939 30.1607 29.5957 30.0138 29.4386C29.8668 29.2816 29.6753 29.1734 29.465 29.1287C29.2198 29.0573 28.9563 29.0855 28.7317 29.2071C28.5072 29.3287 28.3396 29.534 28.2653 29.7784Z" fill="#D67116"/>
<path d="M28.5831 34.3258C28.6177 34.7571 28.7795 35.1684 29.048 35.5078C29.3164 35.8471 29.6795 36.0992 30.0912 36.2322C30.5029 36.3652 30.9449 36.3731 31.3611 36.2549C31.7773 36.1367 32.1491 35.8977 32.4295 35.5681C32.7099 35.2386 32.8863 34.8333 32.9363 34.4035C32.9863 33.9737 32.9078 33.5388 32.7106 33.1536C32.5134 32.7685 32.2064 32.4505 31.8284 32.2399C31.4505 32.0292 31.0185 31.9354 30.5872 31.9703C30.0092 32.017 29.4733 32.2914 29.0975 32.7331C28.7217 33.1748 28.5366 33.7477 28.5831 34.3258Z" fill="#B75F08"/>
<path d="M30.0076 32.9619C29.9302 33.1625 29.9161 33.3821 29.9674 33.5909C30.0186 33.7997 30.1326 33.9878 30.2941 34.1298C30.4555 34.2719 30.6567 34.3609 30.8703 34.3851C31.084 34.4092 31.2999 34.3673 31.489 34.2649C31.6781 34.1625 31.8312 34.0045 31.9277 33.8124C32.0243 33.6203 32.0596 33.4032 32.0289 33.1903C31.9982 32.9775 31.9029 32.7792 31.756 32.6222C31.6091 32.4652 31.4176 32.357 31.2073 32.3122C30.9621 32.242 30.6991 32.2706 30.4748 32.3921C30.2505 32.5136 30.0827 32.7182 30.0076 32.9619Z" fill="#D67116"/>
<path d="M29.9347 38.1707C29.9696 38.6011 30.1314 39.0116 30.3996 39.3501C30.6677 39.6886 31.0303 39.94 31.4413 40.0724C31.8524 40.2049 32.2935 40.2125 32.7088 40.0942C33.1242 39.976 33.4952 39.7372 33.7748 39.4081C34.0545 39.079 34.2303 38.6744 34.2799 38.2454C34.3296 37.8164 34.2509 37.3823 34.0539 36.998C33.8568 36.6137 33.5502 36.2965 33.1729 36.0865C32.7955 35.8764 32.3644 35.783 31.9339 35.818C31.3569 35.865 30.8221 36.1392 30.4472 36.5804C30.0723 37.0216 29.888 37.5936 29.9347 38.1707Z" fill="#B75F08"/>
<path d="M31.3592 36.8068C31.281 37.0073 31.2661 37.2269 31.3167 37.4361C31.3672 37.6452 31.4807 37.8338 31.6418 37.9764C31.803 38.119 32.004 38.2088 32.2178 38.2335C32.4315 38.2582 32.6477 38.2167 32.8372 38.1146C33.0266 38.0126 33.1802 37.8548 33.2771 37.6627C33.374 37.4706 33.4097 37.2534 33.3792 37.0404C33.3488 36.8273 33.2537 36.6288 33.1068 36.4716C32.9599 36.3143 32.7683 36.2059 32.5579 36.161C32.3133 36.0898 32.0505 36.1176 31.8263 36.2384C31.602 36.3593 31.4343 36.5634 31.3592 36.8068Z" fill="#D67116"/>
<path d="M30.5374 42.1079C30.5728 42.538 30.7348 42.948 31.003 43.286C31.2712 43.6241 31.6336 43.8751 32.0443 44.0074C32.4551 44.1396 32.8959 44.1472 33.3109 44.0291C33.726 43.911 34.0968 43.6726 34.3764 43.3439C34.6561 43.0153 34.8321 42.6111 34.8821 42.1825C34.9322 41.7538 34.8542 41.32 34.6579 40.9357C34.4615 40.5514 34.1557 40.2339 33.7791 40.0233C33.4024 39.8127 32.9718 39.7184 32.5416 39.7524C32.2552 39.775 31.976 39.854 31.7201 39.9847C31.4643 40.1154 31.2367 40.2953 31.0506 40.5141C30.8644 40.733 30.7232 40.9864 30.6351 41.2599C30.5471 41.5334 30.5139 41.8216 30.5374 42.1079Z" fill="#B75F08"/>
<path d="M31.9619 40.744C31.8855 40.9438 31.8722 41.1622 31.9237 41.3699C31.9751 41.5775 32.0889 41.7644 32.2498 41.9054C32.4106 42.0464 32.6108 42.1347 32.8234 42.1586C33.036 42.1824 33.2507 42.1406 33.4388 42.0387C33.6269 41.9369 33.7793 41.7799 33.8755 41.5888C33.9717 41.3977 34.0071 41.1818 33.9769 40.97C33.9467 40.7583 33.8523 40.5608 33.7066 40.4043C33.5608 40.2477 33.3706 40.1396 33.1615 40.0943C32.9163 40.0219 32.6524 40.0496 32.4275 40.1713C32.2026 40.2931 32.0352 40.499 31.9619 40.744Z" fill="#D67116"/>
<path d="M29.7367 46.0961C29.7713 46.5265 29.9327 46.9369 30.2006 47.2755C30.4685 47.6142 30.8307 47.8658 31.2415 47.9986C31.6524 48.1314 32.0933 48.1394 32.5087 48.0216C32.9241 47.9038 33.2952 47.6655 33.5752 47.3368C33.8552 47.0082 34.0314 46.6038 34.0817 46.175C34.1319 45.7462 34.0538 45.3121 33.8574 44.9276C33.661 44.5431 33.3549 44.2255 32.978 44.0149C32.6011 43.8043 32.1702 43.7102 31.7398 43.7445C31.1631 43.7925 30.6288 44.0668 30.2535 44.5073C29.8782 44.9479 29.6924 45.519 29.7367 46.0961Z" fill="#B75F08"/>
<path d="M31.1612 44.7323C31.0829 44.9327 31.0681 45.1523 31.1186 45.3615C31.1691 45.5707 31.2826 45.7593 31.4438 45.9019C31.6049 46.0445 31.806 46.1342 32.0197 46.1589C32.2335 46.1836 32.4497 46.1422 32.6391 46.0401C32.8285 45.938 32.9821 45.7803 33.079 45.5882C33.176 45.3961 33.2116 45.1788 33.1812 44.9658C33.1507 44.7528 33.0556 44.5542 32.9087 44.397C32.7618 44.2397 32.5702 44.1314 32.3598 44.0865C32.1152 44.0142 31.852 44.0415 31.6274 44.1624C31.4029 44.2834 31.2353 44.4882 31.1612 44.7323Z" fill="#D67116"/>
<path d="M27.1974 49.4803C27.233 49.9105 27.3953 50.3204 27.6638 50.6584C27.9324 50.9963 28.295 51.2471 28.706 51.379C29.117 51.5109 29.5579 51.5181 29.9729 51.3995C30.388 51.281 30.7586 51.0421 31.0379 50.713C31.3173 50.3839 31.4928 49.9794 31.5423 49.5506C31.5918 49.1218 31.5132 48.688 31.3162 48.3039C31.1193 47.9198 30.8129 47.6027 30.4358 47.3926C30.0587 47.1826 29.6279 47.089 29.1976 47.1237C28.9114 47.1468 28.6326 47.2262 28.3771 47.3572C28.1216 47.4882 27.8945 47.6682 27.7087 47.8871C27.5229 48.106 27.3821 48.3594 27.2944 48.6328C27.2066 48.9062 27.1737 49.1942 27.1974 49.4803Z" fill="#A85000"/>
<path d="M28.6219 48.1164C28.5444 48.317 28.5304 48.5365 28.5816 48.7454C28.6328 48.9542 28.7469 49.1423 28.9083 49.2843C29.0698 49.4263 29.2709 49.5154 29.4846 49.5396C29.6982 49.5637 29.9142 49.5217 30.1033 49.4193C30.2923 49.3169 30.4455 49.159 30.542 48.9669C30.6385 48.7748 30.6738 48.5576 30.6431 48.3448C30.6124 48.132 30.5172 47.9337 30.3703 47.7767C30.2234 47.6197 30.0318 47.5115 29.8215 47.4667C29.5763 47.3953 29.3128 47.4235 29.0882 47.5452C28.8637 47.6668 28.6961 47.872 28.6219 48.1164Z" fill="#D67116"/>
<path d="M24.1871 52.6378C24.2218 53.0682 24.3832 53.4787 24.6511 53.8173C24.9189 54.1559 25.2811 54.4076 25.692 54.5403C26.1028 54.6731 26.5438 54.6812 26.9592 54.5634C27.3746 54.4456 27.7457 54.2073 28.0257 53.8786C28.3056 53.5499 28.4819 53.1456 28.5321 52.7168C28.5823 52.288 28.5043 51.8539 28.3079 51.4694C28.1114 51.0849 27.8054 50.7673 27.4285 50.5567C27.0516 50.3461 26.6207 50.252 26.1903 50.2862C25.6131 50.3333 25.0781 50.6072 24.7027 51.048C24.3272 51.4888 24.1418 52.0606 24.1871 52.6378Z" fill="#A85000"/>
<path d="M25.6116 51.2739C25.5333 51.4744 25.5185 51.694 25.569 51.9032C25.6196 52.1123 25.7331 52.301 25.8942 52.4436C26.0554 52.5862 26.2564 52.6759 26.4701 52.7006C26.6839 52.7253 26.9001 52.6838 27.0895 52.5818C27.279 52.4797 27.4325 52.322 27.5294 52.1299C27.6264 51.9377 27.662 51.7205 27.6316 51.5075C27.6011 51.2945 27.506 51.0959 27.3591 50.9387C27.2123 50.7814 27.0207 50.673 26.8102 50.6281C26.5656 50.5569 26.3029 50.5847 26.0786 50.7056C25.8544 50.8264 25.6866 51.0305 25.6116 51.2739Z" fill="#D67116"/>
<path d="M21.6732 56.146C21.7078 56.5764 21.8692 56.9868 22.1371 57.3255C22.4049 57.6641 22.7672 57.9157 23.178 58.0485C23.5888 58.1813 24.0298 58.1893 24.4452 58.0715C24.8606 57.9538 25.2317 57.7155 25.5117 57.3868C25.7917 57.0581 25.9679 56.6538 26.0182 56.225C26.0684 55.7961 25.9903 55.362 25.7939 54.9776C25.5975 54.5931 25.2914 54.2755 24.9145 54.0649C24.5376 53.8543 24.1067 53.7602 23.6763 53.7944C23.0991 53.8414 22.5642 54.1154 22.1887 54.5562C21.8132 54.997 21.6278 55.5687 21.6732 56.146Z" fill="#A85000"/>
<path d="M23.0977 54.7822C23.0194 54.9826 23.0046 55.2022 23.0551 55.4114C23.1056 55.6206 23.2192 55.8092 23.3803 55.9518C23.5414 56.0944 23.7425 56.1841 23.9562 56.2088C24.17 56.2335 24.3862 56.1921 24.5756 56.09C24.7651 55.9879 24.9186 55.8302 25.0155 55.6381C25.1125 55.446 25.1481 55.2287 25.1177 55.0157C25.0872 54.8027 24.9921 54.6041 24.8452 54.4469C24.6983 54.2896 24.5067 54.1812 24.2963 54.1364C24.0517 54.0651 23.789 54.093 23.5647 54.2138C23.3405 54.3346 23.1727 54.5387 23.0977 54.7822Z" fill="#D67116"/>
<path d="M19.6113 59.8884C19.646 60.3188 19.8074 60.7292 20.0752 61.0678C20.3431 61.4065 20.7053 61.6581 21.1162 61.7909C21.527 61.9237 21.968 61.9317 22.3834 61.8139C22.7987 61.6961 23.1699 61.4578 23.4499 61.1292C23.7298 60.8005 23.9061 60.3962 23.9563 59.9673C24.0065 59.5385 23.9285 59.1044 23.7321 58.7199C23.5356 58.3354 23.2296 58.0178 22.8527 57.8072C22.4757 57.5966 22.0448 57.5025 21.6145 57.5368C21.0373 57.5838 20.5023 57.8578 20.1268 58.2986C19.7514 58.7394 19.566 59.3111 19.6113 59.8884Z" fill="#A85000"/>
<path d="M21.0369 58.5206C20.9586 58.721 20.9437 58.9407 20.9943 59.1498C21.0448 59.359 21.1583 59.5476 21.3195 59.6902C21.4806 59.8328 21.6817 59.9225 21.8954 59.9472C22.1092 59.972 22.3254 59.9305 22.5148 59.8284C22.7042 59.7264 22.8578 59.5686 22.9547 59.3765C23.0517 59.1844 23.0873 58.9671 23.0568 58.7541C23.0264 58.5411 22.9313 58.3426 22.7844 58.1853C22.6375 58.0281 22.4459 57.9197 22.2355 57.8748C21.9909 57.8047 21.7287 57.833 21.5047 57.9536C21.2807 58.0743 21.1128 58.2778 21.0369 58.5206Z" fill="#D67116"/>
<path d="M18.9113 64.1254C18.9462 64.5559 19.108 64.9663 19.3762 65.3048C19.6444 65.6434 20.0069 65.8947 20.4179 66.0272C20.829 66.1596 21.2701 66.1672 21.6855 66.049C22.1008 65.9307 22.4718 65.692 22.7514 65.3629C23.0311 65.0338 23.2069 64.6291 23.2565 64.2001C23.3062 63.7711 23.2276 63.3371 23.0305 62.9528C22.8334 62.5685 22.5269 62.2513 22.1495 62.0412C21.7722 61.8312 21.341 61.7378 20.9106 61.7728C20.6246 61.7955 20.346 61.8745 20.0907 62.0051C19.8353 62.1357 19.6083 62.3155 19.4225 62.5341C19.2368 62.7526 19.096 63.0057 19.0083 63.2788C18.9206 63.5519 18.8876 63.8396 18.9113 64.1254Z" fill="#A85000"/>
<path d="M20.3358 62.7616C20.2576 62.962 20.2427 63.1816 20.2933 63.3908C20.3438 63.6 20.4573 63.7886 20.6185 63.9312C20.7796 64.0738 20.9806 64.1635 21.1944 64.1882C21.4081 64.2129 21.6243 64.1715 21.8138 64.0694C22.0032 63.9673 22.1568 63.8096 22.2537 63.6175C22.3506 63.4254 22.3863 63.2081 22.3558 62.9951C22.3254 62.7821 22.2303 62.5836 22.0834 62.4263C21.9365 62.2691 21.7449 62.1607 21.5345 62.1158C21.4134 62.0794 21.2863 62.0673 21.1605 62.0801C21.0347 62.0928 20.9126 62.1303 20.8013 62.1903C20.69 62.2502 20.5916 62.3316 20.5117 62.4296C20.4319 62.5276 20.3721 62.6404 20.3358 62.7616Z" fill="#D67116"/>
<path d="M20.1684 68.2296C20.2037 68.6597 20.3657 69.0696 20.6339 69.4077C20.9021 69.7458 21.2645 69.9968 21.6753 70.129C22.0861 70.2613 22.5268 70.2689 22.9419 70.1508C23.357 70.0327 23.7277 69.7943 24.0074 69.4656C24.287 69.1369 24.463 68.7327 24.5131 68.3041C24.5632 67.8755 24.4851 67.4416 24.2888 67.0574C24.0925 66.6731 23.7867 66.3556 23.41 66.145C23.0334 65.9343 22.6027 65.8401 22.1725 65.8741C21.5945 65.9208 21.0586 66.1952 20.6828 66.6369C20.307 67.0786 20.1219 67.6515 20.1684 68.2296Z" fill="#A85000"/>
<path d="M21.6046 66.8689C21.5272 67.0695 21.5131 67.289 21.5643 67.4979C21.6156 67.7067 21.7296 67.8948 21.891 68.0368C22.0525 68.1788 22.2536 68.2679 22.4673 68.2921C22.681 68.3162 22.8969 68.2742 23.086 68.1718C23.2751 68.0694 23.4282 67.9115 23.5247 67.7194C23.6213 67.5272 23.6565 67.3101 23.6258 67.0973C23.5951 66.8845 23.4999 66.6862 23.353 66.5292C23.2061 66.3722 23.0145 66.264 22.8042 66.2192C22.559 66.1489 22.296 66.1776 22.0717 66.2991C21.8474 66.4206 21.6797 66.6251 21.6046 66.8689Z" fill="#D67116"/>
<path d="M23.5868 70.8911C23.6214 71.3215 23.7828 71.7319 24.0507 72.0706C24.3185 72.4092 24.6808 72.6608 25.0916 72.7936C25.5024 72.9264 25.9434 72.9344 26.3588 72.8166C26.7742 72.6988 27.1453 72.4605 27.4253 72.1319C27.7053 71.8032 27.8815 71.3989 27.9317 70.97C27.982 70.5412 27.9039 70.1071 27.7075 69.7226C27.511 69.3381 27.205 69.0205 26.8281 68.8099C26.4512 68.5994 26.0203 68.5052 25.5899 68.5395C25.0131 68.5875 24.4788 68.8618 24.1036 69.3024C23.7283 69.7429 23.5425 70.3141 23.5868 70.8911Z" fill="#A85000"/>
<path d="M25.0113 69.5272C24.933 69.7277 24.9182 69.9473 24.9687 70.1565C25.0192 70.3657 25.1327 70.5543 25.2939 70.6969C25.455 70.8395 25.6561 70.9292 25.8698 70.9539C26.0836 70.9786 26.2998 70.9371 26.4892 70.8351C26.6786 70.733 26.8322 70.5753 26.9291 70.3832C27.0261 70.191 27.0617 69.9738 27.0312 69.7608C27.0008 69.5478 26.9057 69.3492 26.7588 69.192C26.6119 69.0347 26.4203 68.9263 26.2099 68.8814C25.9653 68.8091 25.7021 68.8364 25.4775 68.9574C25.253 69.0784 25.0854 69.2832 25.0113 69.5272Z" fill="#D67116"/>
<path d="M27.5794 69.2694C27.6148 69.6995 27.7768 70.1094 28.045 70.4475C28.3132 70.7856 28.6755 71.0366 29.0863 71.1689C29.4971 71.3011 29.9379 71.3087 30.3529 71.1906C30.768 71.0725 31.1388 70.8341 31.4184 70.5054C31.6981 70.1767 31.874 69.7726 31.9241 69.3439C31.9742 68.9153 31.8962 68.4814 31.6998 68.0972C31.5035 67.7129 31.1977 67.3954 30.821 67.1848C30.4444 66.9742 30.0138 66.8799 29.5836 66.9139C29.2971 66.9365 29.018 67.0154 28.7621 67.1461C28.5063 67.2769 28.2787 67.4568 28.0925 67.6756C27.9063 67.8944 27.7652 68.1479 27.6771 68.4214C27.5891 68.6948 27.5559 68.983 27.5794 69.2694Z" fill="#A85000"/>
<path d="M29.0039 67.9055C28.9276 68.1053 28.9142 68.3237 28.9657 68.5314C29.0172 68.739 29.131 68.9259 29.2918 69.0669C29.4527 69.2079 29.6529 69.2962 29.8654 69.3201C30.078 69.3439 30.2928 69.3021 30.4809 69.2002C30.669 69.0984 30.8214 68.9413 30.9176 68.7503C31.0137 68.5592 31.0491 68.3433 31.0189 68.1315C30.9887 67.9198 30.8944 67.7223 30.7486 67.5658C30.6029 67.4092 30.4127 67.3011 30.2036 67.2558C29.9584 67.1834 29.6944 67.211 29.4695 67.3328C29.2447 67.4546 29.0773 67.6606 29.0039 67.9055Z" fill="#D67116"/>
<path d="M28.2594 64.9977C28.294 65.429 28.4558 65.8403 28.7243 66.1796C28.9927 66.519 29.3558 66.7711 29.7675 66.9041C30.1792 67.0371 30.6212 67.045 31.0374 66.9268C31.4536 66.8086 31.8254 66.5696 32.1058 66.24C32.3862 65.9105 32.5626 65.5052 32.6126 65.0754C32.6626 64.6456 32.5841 64.2106 32.3869 63.8255C32.1897 63.4404 31.8827 63.1224 31.5047 62.9118C31.1268 62.7011 30.6948 62.6073 30.2635 62.6422C29.6855 62.6889 29.1496 62.9633 28.7738 63.405C28.398 63.8467 28.2129 64.4196 28.2594 64.9977Z" fill="#A85000"/>
<path d="M29.6839 63.6338C29.6065 63.8344 29.5924 64.0539 29.6437 64.2628C29.6949 64.4716 29.8089 64.6597 29.9704 64.8017C30.1318 64.9437 30.333 65.0328 30.5466 65.057C30.7603 65.0811 30.9762 65.0392 31.1653 64.9367C31.3544 64.8343 31.5075 64.6764 31.604 64.4843C31.7006 64.2922 31.7359 64.075 31.7052 63.8622C31.6745 63.6494 31.5792 63.4511 31.4323 63.2941C31.2854 63.1371 31.0939 63.0289 30.8836 62.9841C30.6383 62.9127 30.3749 62.9409 30.1503 63.0626C29.9257 63.1842 29.7581 63.3894 29.6839 63.6338Z" fill="#D67116"/>
<path d="M29.3948 60.7601C29.4295 61.1914 29.5912 61.6028 29.8597 61.9421C30.1281 62.2814 30.4912 62.5335 30.9029 62.6665C31.3147 62.7995 31.7566 62.8074 32.1728 62.6892C32.589 62.571 32.9609 62.332 33.2412 62.0025C33.5216 61.6729 33.698 61.2676 33.748 60.8379C33.798 60.4081 33.7195 59.9731 33.5223 59.588C33.3251 59.2028 33.0181 58.8848 32.6401 58.6742C32.2622 58.4636 31.8302 58.3698 31.399 58.4046C30.8209 58.4514 30.285 58.7257 29.9092 59.1674C29.5334 59.6092 29.3484 60.182 29.3948 60.7601Z" fill="#A85000"/>
<path d="M30.8151 59.4119C30.7377 59.6125 30.7237 59.832 30.7749 60.0408C30.8261 60.2497 30.9401 60.4378 31.1016 60.5798C31.2631 60.7218 31.4642 60.8109 31.6779 60.835C31.8915 60.8592 32.1075 60.8172 32.2965 60.7148C32.4856 60.6124 32.6387 60.4545 32.7353 60.2623C32.8318 60.0702 32.8671 59.8531 32.8364 59.6403C32.8057 59.4274 32.7105 59.2291 32.5636 59.0721C32.4166 58.9151 32.2251 58.8069 32.0148 58.7621C31.7696 58.6908 31.5061 58.719 31.2815 58.8406C31.057 58.9622 30.8894 59.1675 30.8151 59.4119Z" fill="#D67116"/>
<path d="M30.1277 56.4942C30.163 56.9243 30.325 57.3343 30.5932 57.6723C30.8614 58.0104 31.2238 58.2614 31.6346 58.3937C32.0454 58.5259 32.4861 58.5335 32.9012 58.4154C33.3163 58.2973 33.687 58.0589 33.9667 57.7302C34.2463 57.4016 34.4223 56.9974 34.4724 56.5688C34.5225 56.1401 34.4444 55.7063 34.2481 55.322C34.0518 54.9377 33.746 54.6202 33.3693 54.4096C32.9927 54.199 32.562 54.1047 32.1318 54.1387C31.5538 54.1854 31.0179 54.4598 30.6421 54.9015C30.2663 55.3432 30.0812 55.9161 30.1277 56.4942Z" fill="#A85000"/>
<path d="M31.5522 55.1304C31.4748 55.331 31.4607 55.5505 31.5119 55.7593C31.5632 55.9682 31.6772 56.1563 31.8386 56.2983C32.0001 56.4403 32.2012 56.5294 32.4149 56.5535C32.6286 56.5777 32.8445 56.5357 33.0336 56.4333C33.2227 56.3309 33.3758 56.173 33.4723 55.9809C33.5689 55.7887 33.6041 55.5716 33.5734 55.3588C33.5427 55.146 33.4475 54.9477 33.3006 54.7907C33.1537 54.6336 32.9621 54.5255 32.7518 54.4807C32.5066 54.4104 32.2436 54.4391 32.0193 54.5606C31.795 54.682 31.6273 54.8866 31.5522 55.1304Z" fill="#D67116"/>
<path d="M31.6249 52.4373C31.6595 52.8677 31.821 53.2781 32.0888 53.6168C32.3567 53.9554 32.7189 54.207 33.1297 54.3398C33.5406 54.4726 33.9816 54.4806 34.3969 54.3628C34.8123 54.245 35.1835 54.0068 35.4634 53.6781C35.7434 53.3494 35.9196 52.9451 35.9699 52.5163C36.0201 52.0874 35.9421 51.6533 35.7456 51.2688C35.5492 50.8844 35.2432 50.5667 34.8662 50.3562C34.4893 50.1456 34.0584 50.0515 33.628 50.0857C33.0509 50.1327 32.5159 50.4067 32.1404 50.8475C31.7649 51.2883 31.5795 51.86 31.6249 52.4373Z" fill="#A85000"/>
<path d="M33.0484 51.0774C32.971 51.278 32.9569 51.4975 33.0081 51.7064C33.0594 51.9152 33.1734 52.1033 33.3349 52.2453C33.4963 52.3873 33.6974 52.4764 33.9111 52.5006C34.1248 52.5247 34.3407 52.4827 34.5298 52.3803C34.7189 52.2779 34.872 52.12 34.9685 51.9279C35.0651 51.7358 35.1004 51.5186 35.0696 51.3058C35.0389 51.093 34.9437 50.8947 34.7968 50.7377C34.6499 50.5807 34.4584 50.4725 34.248 50.4277C34.0028 50.3563 33.7394 50.3845 33.5148 50.5062C33.2902 50.6278 33.1226 50.833 33.0484 51.0774Z" fill="#D67116"/>
<path d="M34.7929 49.5816C34.8285 50.0118 34.9909 50.4217 35.2594 50.7597C35.5279 51.0976 35.8906 51.3484 36.3016 51.4803C36.7126 51.6122 37.1534 51.6194 37.5685 51.5008C37.9835 51.3823 38.3541 51.1434 38.6335 50.8143C38.9128 50.4852 39.0883 50.0807 39.1378 49.6519C39.1874 49.2232 39.1087 48.7893 38.9118 48.4052C38.7148 48.0211 38.4085 47.704 38.0314 47.4939C37.6543 47.2839 37.2234 47.1903 36.7932 47.2251C36.507 47.2482 36.2282 47.3275 35.9727 47.4585C35.7172 47.5895 35.49 47.7696 35.3043 47.9885C35.1185 48.2073 34.9777 48.4607 34.8899 48.7341C34.8022 49.0075 34.7692 49.2955 34.7929 49.5816Z" fill="#B75F08"/>
<path d="M36.2174 48.2177C36.14 48.4183 36.1259 48.6378 36.1772 48.8467C36.2284 49.0555 36.3424 49.2436 36.5039 49.3856C36.6653 49.5276 36.8665 49.6167 37.0801 49.6408C37.2938 49.665 37.5097 49.623 37.6988 49.5206C37.8879 49.4182 38.041 49.2603 38.1375 49.0682C38.2341 48.876 38.2694 48.6589 38.2387 48.4461C38.208 48.2333 38.1127 48.035 37.9658 47.878C37.8189 47.721 37.6274 47.6128 37.4171 47.568C37.1718 47.4977 36.9089 47.5264 36.6846 47.6479C36.4603 47.7694 36.2925 47.9739 36.2174 48.2177Z" fill="#D67116"/>
<path d="M38.0749 46.7061C38.1105 47.1363 38.2729 47.5463 38.5414 47.8842C38.8099 48.2222 39.1726 48.473 39.5836 48.6049C39.9946 48.7368 40.4355 48.7439 40.8505 48.6254C41.2656 48.5068 41.6362 48.2679 41.9155 47.9389C42.1948 47.6098 42.3703 47.2053 42.4199 46.7765C42.4694 46.3477 42.3907 45.9138 42.1938 45.5297C41.9969 45.1456 41.6905 44.8285 41.3134 44.6185C40.9363 44.4084 40.5054 44.3149 40.0752 44.3496C39.789 44.3727 39.5102 44.452 39.2547 44.583C38.9992 44.714 38.7721 44.8941 38.5863 45.113C38.4005 45.3319 38.2597 45.5853 38.1719 45.8586C38.0842 46.132 38.0512 46.42 38.0749 46.7061Z" fill="#B75F08"/>
<path d="M39.4916 45.3402C39.4142 45.5408 39.4001 45.7603 39.4514 45.9692C39.5026 46.178 39.6166 46.3661 39.7781 46.5081C39.9395 46.6501 40.1407 46.7392 40.3543 46.7634C40.568 46.7875 40.7839 46.7456 40.973 46.6432C41.1621 46.5408 41.3152 46.3828 41.4118 46.1907C41.5083 45.9986 41.5436 45.7814 41.5129 45.5686C41.4822 45.3558 41.3869 45.1575 41.24 45.0005C41.0931 44.8435 40.9016 44.7353 40.6913 44.6905C40.4461 44.6203 40.1831 44.6489 39.9588 44.7704C39.7345 44.8919 39.5667 45.0965 39.4916 45.3402Z" fill="#D67116"/>
<path d="M41.6067 44.3205C41.6423 44.7507 41.8047 45.1606 42.0732 45.4986C42.3417 45.8365 42.7044 46.0873 43.1154 46.2192C43.5264 46.3511 43.9673 46.3583 44.3823 46.2397C44.7974 46.1212 45.168 45.8823 45.4473 45.5532C45.7266 45.2241 45.9021 44.8196 45.9517 44.3908C46.0012 43.962 45.9225 43.5282 45.7256 43.1441C45.5286 42.76 45.2223 42.4429 44.8452 42.2328C44.4681 42.0228 44.0372 41.9292 43.607 41.9639C43.0294 42.0116 42.4944 42.2866 42.1193 42.7284C41.7443 43.1702 41.5599 43.7428 41.6067 44.3205Z" fill="#B75F08"/>
<path d="M43.0312 42.9566C42.9538 43.1572 42.9397 43.3767 42.991 43.5856C43.0422 43.7944 43.1562 43.9825 43.3177 44.1245C43.4791 44.2665 43.6803 44.3556 43.8939 44.3797C44.1076 44.4039 44.3235 44.3619 44.5126 44.2595C44.7017 44.1571 44.8548 43.9992 44.9514 43.8071C45.0479 43.6149 45.0832 43.3978 45.0525 43.185C45.0218 42.9722 44.9265 42.7739 44.7796 42.6169C44.6327 42.4598 44.4412 42.3517 44.2309 42.3069C43.9856 42.2355 43.7222 42.2637 43.4976 42.3853C43.273 42.507 43.1054 42.7122 43.0312 42.9566Z" fill="#D67116"/>
<path d="M44.0504 40.7307C44.085 41.161 44.2465 41.5715 44.5143 41.9101C44.7822 42.2488 45.1444 42.5004 45.5552 42.6332C45.9661 42.766 46.4071 42.774 46.8224 42.6562C47.2378 42.5384 47.609 42.3001 47.8889 41.9714C48.1689 41.6427 48.3452 41.2384 48.3954 40.8096C48.4456 40.3808 48.3676 39.9467 48.1711 39.5622C47.9747 39.1777 47.6687 38.8601 47.2917 38.6495C46.9148 38.4389 46.4839 38.3448 46.0535 38.3791C45.7675 38.4018 45.4889 38.4807 45.2334 38.6113C44.9779 38.7418 44.7507 38.9214 44.5647 39.1398C44.3786 39.3582 44.2375 39.6111 44.1492 39.884C44.061 40.157 44.0274 40.4447 44.0504 40.7307Z" fill="#B75F08"/>
<path d="M45.4827 39.3689C45.4045 39.5693 45.3896 39.7889 45.4401 39.9981C45.4907 40.2073 45.6042 40.3959 45.7653 40.5385C45.9265 40.6811 46.1275 40.7708 46.3413 40.7955C46.555 40.8202 46.7712 40.7788 46.9606 40.6767C47.1501 40.5746 47.3036 40.4169 47.4006 40.2248C47.4975 40.0327 47.5332 39.8154 47.5027 39.6024C47.4722 39.3894 47.3771 39.1909 47.2303 39.0336C47.0834 38.8763 46.8918 38.7679 46.6813 38.7231C46.4368 38.6507 46.1735 38.6781 45.949 38.799C45.7245 38.92 45.5569 39.1248 45.4827 39.3689Z" fill="#D67116"/>
<path d="M47.1408 37.649C47.1764 38.0791 47.3387 38.4891 47.6072 38.8271C47.8758 39.165 48.2384 39.4158 48.6494 39.5477C49.0604 39.6796 49.5013 39.6868 49.9164 39.5682C50.3314 39.4497 50.702 39.2108 50.9813 38.8817C51.2606 38.5526 51.4362 38.1481 51.4857 37.7193C51.5352 37.2905 51.4566 36.8567 51.2596 36.4726C51.0627 36.0885 50.7563 35.7714 50.3792 35.5613C50.0021 35.3513 49.5713 35.2577 49.141 35.2924C48.8546 35.315 48.5755 35.394 48.3198 35.5248C48.0641 35.6556 47.8367 35.8357 47.6508 36.0547C47.4649 36.2737 47.3242 36.5273 47.2366 36.8009C47.1491 37.0745 47.1165 37.3627 47.1408 37.649Z" fill="#B75F08"/>
<path d="M48.5614 36.2841C48.484 36.4847 48.4699 36.7042 48.5211 36.913C48.5724 37.1219 48.6864 37.31 48.8478 37.452C49.0093 37.594 49.2104 37.6831 49.4241 37.7072C49.6378 37.7314 49.8537 37.6894 50.0428 37.587C50.2318 37.4846 50.385 37.3267 50.4815 37.1346C50.5781 36.9424 50.6133 36.7253 50.5826 36.5125C50.5519 36.2996 50.4567 36.1014 50.3098 35.9443C50.1629 35.7873 49.9713 35.6791 49.761 35.6344C49.5158 35.563 49.2523 35.5912 49.0278 35.7128C48.8032 35.8344 48.6356 36.0397 48.5614 36.2841Z" fill="#D67116"/>
<path d="M48.9587 33.7701C48.9936 34.2015 49.1557 34.6128 49.4245 34.952C49.6932 35.2913 50.0566 35.5431 50.4686 35.6758C50.8805 35.8084 51.3226 35.8159 51.7388 35.6972C52.155 35.5786 52.5266 35.3391 52.8067 35.0091C53.0868 34.6792 53.2627 34.2736 53.3121 33.8436C53.3616 33.4137 53.2824 32.9787 53.0846 32.5938C52.8868 32.2088 52.5792 31.8912 52.2008 31.6811C51.8225 31.4711 51.3903 31.3779 50.9589 31.4136C50.3814 31.4613 49.8463 31.7362 49.4713 32.1781C49.0963 32.6199 48.9119 33.1925 48.9587 33.7701Z" fill="#B75F08"/>
<path d="M50.3843 32.4024C50.3069 32.603 50.2928 32.8225 50.344 33.0313C50.3953 33.2402 50.5093 33.4283 50.6708 33.5703C50.8322 33.7123 51.0333 33.8014 51.247 33.8255C51.4607 33.8497 51.6766 33.8077 51.8657 33.7053C52.0548 33.6029 52.2079 33.445 52.3044 33.2528C52.401 33.0607 52.4362 32.8436 52.4055 32.6308C52.3748 32.4179 52.2796 32.2196 52.1327 32.0626C51.9858 31.9056 51.7943 31.7974 51.5839 31.7527C51.3387 31.6813 51.0752 31.7095 50.8507 31.8311C50.6261 31.9527 50.4585 32.158 50.3843 32.4024Z" fill="#D67116"/>
<path d="M50.5522 29.8227C50.5878 30.2529 50.7501 30.6629 51.0187 31.0008C51.2872 31.3388 51.6499 31.5896 52.0609 31.7215C52.4719 31.8534 52.9127 31.8605 53.3278 31.742C53.7428 31.6234 54.1134 31.3845 54.3928 31.0555C54.6721 30.7264 54.8476 30.3219 54.8971 29.8931C54.9467 29.4643 54.868 29.0304 54.6711 28.6463C54.4741 28.2622 54.1677 27.9451 53.7907 27.7351C53.4136 27.525 52.9827 27.4315 52.5524 27.4662C52.2661 27.4888 51.987 27.5678 51.7312 27.6986C51.4755 27.8294 51.2482 28.0095 51.0623 28.2285C50.8764 28.4475 50.7356 28.7011 50.6481 28.9747C50.5605 29.2483 50.5279 29.5365 50.5522 29.8227Z" fill="#B75F08"/>
<path d="M51.9533 28.4526C51.8759 28.6532 51.8618 28.8728 51.913 29.0816C51.9643 29.2904 52.0783 29.4785 52.2397 29.6205C52.4012 29.7625 52.6023 29.8516 52.816 29.8758C53.0297 29.8999 53.2456 29.858 53.4347 29.7556C53.6237 29.6532 53.7769 29.4952 53.8734 29.3031C53.97 29.111 54.0052 28.8938 53.9745 28.681C53.9438 28.4682 53.8486 28.2699 53.7017 28.1129C53.5548 27.9559 53.3632 27.8477 53.1529 27.8029C52.9077 27.7316 52.6442 27.7598 52.4197 27.8814C52.1951 28.003 52.0275 28.2083 51.9533 28.4526Z" fill="#D67116"/>
<path d="M50.7854 25.469C50.82 25.8993 50.9814 26.3098 51.2493 26.6484C51.5171 26.987 51.8794 27.2387 52.2902 27.3715C52.701 27.5043 53.142 27.5123 53.5574 27.3945C53.9728 27.2767 54.3439 27.0384 54.6239 26.7097C54.9039 26.381 55.0801 25.9767 55.1303 25.5479C55.1806 25.1191 55.1025 24.685 54.9061 24.3005C54.7096 23.916 54.4036 23.5984 54.0267 23.3878C53.6498 23.1772 53.2189 23.0831 52.7885 23.1174C52.2113 23.1644 51.6764 23.4383 51.3009 23.8791C50.9254 24.32 50.74 24.8917 50.7854 25.469Z" fill="#B75F08"/>
<path d="M52.2077 24.1129C52.1294 24.3134 52.1146 24.533 52.1651 24.7422C52.2156 24.9513 52.3292 25.14 52.4903 25.2826C52.6515 25.4252 52.8525 25.5149 53.0662 25.5396C53.28 25.5643 53.4962 25.5228 53.6856 25.4208C53.8751 25.3187 54.0286 25.161 54.1255 24.9688C54.2225 24.7767 54.2581 24.5595 54.2277 24.3465C54.1972 24.1335 54.1021 23.9349 53.9552 23.7777C53.8084 23.6204 53.6168 23.512 53.4063 23.4671C53.1617 23.3948 52.8985 23.4221 52.674 23.5431C52.4494 23.6641 52.2818 23.8689 52.2077 24.1129Z" fill="#D67116"/>
<path d="M51.2232 21.0696C51.2578 21.5 51.4193 21.9104 51.6871 22.2491C51.955 22.5877 52.3172 22.8393 52.7281 22.9721C53.1389 23.1049 53.5799 23.1129 53.9953 22.9951C54.4106 22.8774 54.7818 22.6391 55.0617 22.3104C55.3417 21.9817 55.518 21.5774 55.5682 21.1486C55.6184 20.7197 55.5404 20.2856 55.3439 19.9012C55.1475 19.5167 54.8415 19.1991 54.4645 18.9885C54.0876 18.7779 53.6567 18.6838 53.2263 18.718C52.6496 18.7661 52.1153 19.0403 51.74 19.4809C51.3647 19.9215 51.1789 20.4926 51.2232 21.0696Z" fill="#B75F08"/>
<path d="M52.6558 19.6912C52.5775 19.8917 52.5627 20.1113 52.6132 20.3205C52.6637 20.5296 52.7772 20.7182 52.9384 20.8608C53.0995 21.0034 53.3006 21.0932 53.5143 21.1179C53.7281 21.1426 53.9443 21.1011 54.1337 20.999C54.3231 20.897 54.4767 20.7392 54.5736 20.5471C54.6706 20.355 54.7062 20.1378 54.6757 19.9248C54.6453 19.7117 54.5502 19.5132 54.4033 19.356C54.2564 19.1987 54.0648 19.0903 53.8544 19.0454C53.6098 18.9731 53.3466 19.0004 53.122 19.1214C52.8975 19.2424 52.7299 19.4472 52.6558 19.6912Z" fill="#D67116"/>
<path d="M50.0401 17.0648C50.0749 17.4952 50.2367 17.9057 50.5049 18.2442C50.7731 18.5827 51.1356 18.8341 51.5466 18.9665C51.9577 19.099 52.3988 19.1066 52.8142 18.9883C53.2295 18.8701 53.6005 18.6313 53.8801 18.3022C54.1598 17.9731 54.3356 17.5685 54.3852 17.1395C54.4349 16.7105 54.3562 16.2764 54.1592 15.8921C53.9621 15.5078 53.6556 15.1906 53.2782 14.9806C52.9009 14.7705 52.4697 14.6771 52.0393 14.7121C51.4622 14.7591 50.9274 15.0333 50.5525 15.4745C50.1776 15.9157 49.9933 16.4877 50.0401 17.0648Z" fill="#B75F08"/>
<path d="M51.4646 15.7009C51.3863 15.9014 51.3714 16.121 51.422 16.3302C51.4725 16.5393 51.586 16.7279 51.7472 16.8705C51.9083 17.0131 52.1093 17.1029 52.3231 17.1276C52.5368 17.1523 52.753 17.1108 52.9425 17.0087C53.1319 16.9067 53.2855 16.7489 53.3824 16.5568C53.4793 16.3647 53.515 16.1475 53.4845 15.9345C53.4541 15.7215 53.359 15.5229 53.2121 15.3657C53.0652 15.2084 52.8736 15.1 52.6632 15.0551C52.4186 14.9839 52.1558 15.0117 51.9316 15.1325C51.7074 15.2534 51.5396 15.4575 51.4646 15.7009Z" fill="#D67116"/>
<path d="M47.9126 13.3971C47.948 13.8272 48.11 14.2371 48.3782 14.5752C48.6464 14.9133 49.0088 15.1643 49.4195 15.2966C49.8303 15.4288 50.2711 15.4364 50.6861 15.3183C51.1012 15.2002 51.472 14.9618 51.7516 14.6331C52.0313 14.3044 52.2073 13.9003 52.2573 13.4716C52.3074 13.043 52.2294 12.6092 52.0331 12.2249C51.8367 11.8406 51.5309 11.5231 51.1543 11.3125C50.7776 11.1019 50.347 11.0076 49.9168 11.0416C49.3387 11.0883 48.8029 11.3627 48.427 11.8044C48.0512 12.2461 47.8662 12.819 47.9126 13.3971Z" fill="#B75F08"/>
<path d="M49.3392 12.0254C49.2618 12.226 49.2477 12.4456 49.299 12.6544C49.3502 12.8632 49.4642 13.0513 49.6257 13.1933C49.7871 13.3354 49.9883 13.4244 50.2019 13.4486C50.4156 13.4727 50.6315 13.4308 50.8206 13.3284C51.0097 13.226 51.1628 13.0681 51.2593 12.8759C51.3559 12.6838 51.3912 12.4667 51.3605 12.2538C51.3298 12.041 51.2345 11.8427 51.0876 11.6857C50.9407 11.5287 50.7492 11.4205 50.5389 11.3757C50.2936 11.3044 50.0302 11.3326 49.8056 11.4542C49.581 11.5758 49.4134 11.7811 49.3392 12.0254Z" fill="#D67116"/>
</svg>
